<svg width="268" height="268" viewBox="0 0 268 268" fill="none" xmlns="http://www.w3.org/2000/svg">
<rect x="0.303223" width="267.303" height="267.303" fill="white"/>
<path d="M52.6369 205.625C54.4869 205.625 56.1036 205.983 57.4869 206.7C58.8869 207.4 59.9619 208.417 60.7119 209.75C61.4786 211.067 61.8619 212.608 61.8619 214.375C61.8619 216.142 61.4786 217.675 60.7119 218.975C59.9619 220.275 58.8869 221.275 57.4869 221.975C56.1036 222.658 54.4869 223 52.6369 223H46.9619V205.625H52.6369ZM52.6369 220.675C54.6702 220.675 56.2286 220.125 57.3119 219.025C58.3952 217.925 58.9369 216.375 58.9369 214.375C58.9369 212.358 58.3952 210.783 57.3119 209.65C56.2286 208.517 54.6702 207.95 52.6369 207.95H49.8119V220.675H52.6369ZM76.8115 215.775C76.8115 216.292 76.7782 216.758 76.7115 217.175H66.1865C66.2699 218.275 66.6782 219.158 67.4115 219.825C68.1449 220.492 69.0449 220.825 70.1115 220.825C71.6449 220.825 72.7282 220.183 73.3615 218.9H76.4365C76.0199 220.167 75.2615 221.208 74.1615 222.025C73.0782 222.825 71.7282 223.225 70.1115 223.225C68.7949 223.225 67.6115 222.933 66.5615 222.35C65.5282 221.75 64.7115 220.917 64.1115 219.85C63.5282 218.767 63.2365 217.517 63.2365 216.1C63.2365 214.683 63.5199 213.442 64.0865 212.375C64.6699 211.292 65.4782 210.458 66.5115 209.875C67.5615 209.292 68.7615 209 70.1115 209C71.4115 209 72.5699 209.283 73.5865 209.85C74.6032 210.417 75.3949 211.217 75.9615 212.25C76.5282 213.267 76.8115 214.442 76.8115 215.775ZM73.8365 214.875C73.8199 213.825 73.4449 212.983 72.7115 212.35C71.9782 211.717 71.0699 211.4 69.9865 211.4C69.0032 211.4 68.1615 211.717 67.4615 212.35C66.7615 212.967 66.3449 213.808 66.2115 214.875H73.8365ZM84.1162 223.225C83.0329 223.225 82.0579 223.033 81.1912 222.65C80.3412 222.25 79.6662 221.717 79.1662 221.05C78.6662 220.367 78.3995 219.608 78.3662 218.775H81.3162C81.3662 219.358 81.6412 219.85 82.1412 220.25C82.6579 220.633 83.2995 220.825 84.0662 220.825C84.8662 220.825 85.4829 220.675 85.9162 220.375C86.3662 220.058 86.5912 219.658 86.5912 219.175C86.5912 218.658 86.3412 218.275 85.8412 218.025C85.3579 217.775 84.5829 217.5 83.5162 217.2C82.4829 216.917 81.6412 216.642 80.9912 216.375C80.3412 216.108 79.7745 215.7 79.2912 215.15C78.8245 214.6 78.5912 213.875 78.5912 212.975C78.5912 212.242 78.8079 211.575 79.2412 210.975C79.6745 210.358 80.2912 209.875 81.0912 209.525C81.9079 209.175 82.8412 209 83.8912 209C85.4579 209 86.7162 209.4 87.6662 210.2C88.6329 210.983 89.1495 212.058 89.2162 213.425H86.3662C86.3162 212.808 86.0662 212.317 85.6162 211.95C85.1662 211.583 84.5579 211.4 83.7912 211.4C83.0412 211.4 82.4662 211.542 82.0662 211.825C81.6662 212.108 81.4662 212.483 81.4662 212.95C81.4662 213.317 81.5995 213.625 81.8662 213.875C82.1329 214.125 82.4579 214.325 82.8412 214.475C83.2245 214.608 83.7912 214.783 84.5412 215C85.5412 215.267 86.3579 215.542 86.9912 215.825C87.6412 216.092 88.1995 216.492 88.6662 217.025C89.1329 217.558 89.3745 218.267 89.3912 219.15C89.3912 219.933 89.1745 220.633 88.7412 221.25C88.3079 221.867 87.6912 222.35 86.8912 222.7C86.1079 223.05 85.1829 223.225 84.1162 223.225ZM91.0207 216.05C91.0207 214.667 91.304 213.442 91.8707 212.375C92.454 211.308 93.2374 210.483 94.2207 209.9C95.2207 209.3 96.3207 209 97.5207 209C98.604 209 99.5457 209.217 100.346 209.65C101.162 210.067 101.812 210.592 102.296 211.225V209.225H105.171V223H102.296V220.95C101.812 221.6 101.154 222.142 100.321 222.575C99.4874 223.008 98.5374 223.225 97.4707 223.225C96.2874 223.225 95.204 222.925 94.2207 222.325C93.2374 221.708 92.454 220.858 91.8707 219.775C91.304 218.675 91.0207 217.433 91.0207 216.05ZM102.296 216.1C102.296 215.15 102.096 214.325 101.696 213.625C101.312 212.925 100.804 212.392 100.171 212.025C99.5374 211.658 98.854 211.475 98.1207 211.475C97.3874 211.475 96.704 211.658 96.0707 212.025C95.4374 212.375 94.9207 212.9 94.5207 213.6C94.1374 214.283 93.9457 215.1 93.9457 216.05C93.9457 217 94.1374 217.833 94.5207 218.55C94.9207 219.267 95.4374 219.817 96.0707 220.2C96.7207 220.567 97.404 220.75 98.1207 220.75C98.854 220.75 99.5374 220.567 100.171 220.2C100.804 219.833 101.312 219.3 101.696 218.6C102.096 217.883 102.296 217.05 102.296 216.1ZM109.864 207.4C109.347 207.4 108.914 207.225 108.564 206.875C108.214 206.525 108.039 206.092 108.039 205.575C108.039 205.058 108.214 204.625 108.564 204.275C108.914 203.925 109.347 203.75 109.864 203.75C110.364 203.75 110.789 203.925 111.139 204.275C111.489 204.625 111.664 205.058 111.664 205.575C111.664 206.092 111.489 206.525 111.139 206.875C110.789 207.225 110.364 207.4 109.864 207.4ZM111.264 209.225V223H108.414V209.225H111.264ZM121.456 209C122.539 209 123.506 209.225 124.356 209.675C125.223 210.125 125.898 210.792 126.381 211.675C126.864 212.558 127.106 213.625 127.106 214.875V223H124.281V215.3C124.281 214.067 123.973 213.125 123.356 212.475C122.739 211.808 121.898 211.475 120.831 211.475C119.764 211.475 118.914 211.808 118.281 212.475C117.664 213.125 117.356 214.067 117.356 215.3V223H114.506V209.225H117.356V210.8C117.823 210.233 118.414 209.792 119.131 209.475C119.864 209.158 120.639 209 121.456 209ZM148.81 210.625C148.36 209.758 147.735 209.108 146.935 208.675C146.135 208.225 145.21 208 144.16 208C143.01 208 141.985 208.258 141.085 208.775C140.185 209.292 139.477 210.025 138.96 210.975C138.46 211.925 138.21 213.025 138.21 214.275C138.21 215.525 138.46 216.633 138.96 217.6C139.477 218.55 140.185 219.283 141.085 219.8C141.985 220.317 143.01 220.575 144.16 220.575C145.71 220.575 146.969 220.142 147.935 219.275C148.902 218.408 149.494 217.233 149.71 215.75H143.185V213.475H152.76V215.7C152.577 217.05 152.094 218.292 151.31 219.425C150.544 220.558 149.535 221.467 148.285 222.15C147.052 222.817 145.677 223.15 144.16 223.15C142.527 223.15 141.035 222.775 139.685 222.025C138.335 221.258 137.26 220.2 136.46 218.85C135.677 217.5 135.285 215.975 135.285 214.275C135.285 212.575 135.677 211.05 136.46 209.7C137.26 208.35 138.335 207.3 139.685 206.55C141.052 205.783 142.544 205.4 144.16 205.4C146.01 205.4 147.652 205.858 149.085 206.775C150.535 207.675 151.585 208.958 152.235 210.625H148.81ZM157.921 211.225C158.338 210.525 158.888 209.983 159.571 209.6C160.271 209.2 161.096 209 162.046 209V211.95H161.321C160.205 211.95 159.355 212.233 158.771 212.8C158.205 213.367 157.921 214.35 157.921 215.75V223H155.071V209.225H157.921V211.225ZM163.216 216.05C163.216 214.667 163.499 213.442 164.066 212.375C164.649 211.308 165.433 210.483 166.416 209.9C167.416 209.3 168.516 209 169.716 209C170.799 209 171.741 209.217 172.541 209.65C173.358 210.067 174.008 210.592 174.491 211.225V209.225H177.366V223H174.491V220.95C174.008 221.6 173.349 222.142 172.516 222.575C171.683 223.008 170.733 223.225 169.666 223.225C168.483 223.225 167.399 222.925 166.416 222.325C165.433 221.708 164.649 220.858 164.066 219.775C163.499 218.675 163.216 217.433 163.216 216.05ZM174.491 216.1C174.491 215.15 174.291 214.325 173.891 213.625C173.508 212.925 172.999 212.392 172.366 212.025C171.733 211.658 171.049 211.475 170.316 211.475C169.583 211.475 168.899 211.658 168.266 212.025C167.633 212.375 167.116 212.9 166.716 213.6C166.333 214.283 166.141 215.1 166.141 216.05C166.141 217 166.333 217.833 166.716 218.55C167.116 219.267 167.633 219.817 168.266 220.2C168.916 220.567 169.599 220.75 170.316 220.75C171.049 220.75 171.733 220.567 172.366 220.2C172.999 219.833 173.508 219.3 173.891 218.6C174.291 217.883 174.491 217.05 174.491 216.1ZM186.384 211.55H183.834V223H180.959V211.55H179.334V209.225H180.959V208.25C180.959 206.667 181.376 205.517 182.209 204.8C183.059 204.067 184.384 203.7 186.184 203.7V206.075C185.318 206.075 184.709 206.242 184.359 206.575C184.009 206.892 183.834 207.45 183.834 208.25V209.225H186.384V211.55ZM189.86 207.4C189.343 207.4 188.91 207.225 188.56 206.875C188.21 206.525 188.035 206.092 188.035 205.575C188.035 205.058 188.21 204.625 188.56 204.275C188.91 203.925 189.343 203.75 189.86 203.75C190.36 203.75 190.785 203.925 191.135 204.275C191.485 204.625 191.66 205.058 191.66 205.575C191.66 206.092 191.485 206.525 191.135 206.875C190.785 207.225 190.36 207.4 189.86 207.4ZM191.26 209.225V223H188.41V209.225H191.26ZM199.952 216.125L206.302 223H202.452L197.352 217.075V223H194.502V204.5H197.352V215.25L202.352 209.225H206.302L199.952 216.125ZM206.895 216.05C206.895 214.667 207.178 213.442 207.745 212.375C208.328 211.308 209.111 210.483 210.095 209.9C211.095 209.3 212.195 209 213.395 209C214.478 209 215.42 209.217 216.22 209.65C217.036 210.067 217.686 210.592 218.17 211.225V209.225H221.045V223H218.17V220.95C217.686 221.6 217.028 222.142 216.195 222.575C215.361 223.008 214.411 223.225 213.345 223.225C212.161 223.225 211.078 222.925 210.095 222.325C209.111 221.708 208.328 220.858 207.745 219.775C207.178 218.675 206.895 217.433 206.895 216.05ZM218.17 216.1C218.17 215.15 217.97 214.325 217.57 213.625C217.186 212.925 216.678 212.392 216.045 212.025C215.411 211.658 214.728 211.475 213.995 211.475C213.261 211.475 212.578 211.658 211.945 212.025C211.311 212.375 210.795 212.9 210.395 213.6C210.011 214.283 209.82 215.1 209.82 216.05C209.82 217 210.011 217.833 210.395 218.55C210.795 219.267 211.311 219.817 211.945 220.2C212.595 220.567 213.278 220.75 213.995 220.75C214.728 220.75 215.411 220.567 216.045 220.2C216.678 219.833 217.186 219.3 217.57 218.6C217.97 217.883 218.17 217.05 218.17 216.1Z" fill="#262626"/>
<path d="M179.769 72.8389H79.5301C76.07 72.8389 73.2651 75.6438 73.2651 79.1038V160.548C73.2651 164.008 76.07 166.813 79.5301 166.813H179.769C183.229 166.813 186.034 164.008 186.034 160.548V79.1038C186.034 75.6438 183.229 72.8389 179.769 72.8389Z" fill="white"/>
<path d="M163.062 81.1924H85.7948C83.4881 81.1924 81.6182 83.0623 81.6182 85.369V154.283C81.6182 156.59 83.4881 158.46 85.7948 158.46H163.062C165.369 158.46 167.239 156.59 167.239 154.283V85.369C167.239 83.0623 165.369 81.1924 163.062 81.1924Z" fill="#D741D1"/>
<path d="M136.439 129.415L131.853 143.173C131.73 143.541 131.712 143.935 131.801 144.313C131.891 144.69 132.083 145.035 132.357 145.31C132.631 145.584 132.977 145.776 133.354 145.865C133.732 145.955 134.126 145.937 134.494 145.814L148.252 141.228L191.418 98.0623L179.605 86.249L136.439 129.415Z" fill="white"/>
<path d="M192.552 88.0686L189.599 85.1152C188.424 83.9403 186.83 83.2803 185.169 83.2803C183.507 83.2803 181.914 83.9403 180.739 85.1152L179.605 86.249L191.418 98.0622L192.552 96.9285C193.727 95.7536 194.387 94.1601 194.387 92.4985C194.387 90.837 193.727 89.2435 192.552 88.0686Z" fill="#333333"/>
<path d="M175.592 132.397V165.769C175.602 166.316 175.827 166.837 176.218 167.22C176.608 167.603 177.133 167.817 177.68 167.817C178.227 167.817 178.752 167.602 179.143 167.22C179.533 166.837 179.758 166.316 179.768 165.769V132.397C179.758 131.85 179.533 131.329 179.143 130.946C178.752 130.563 178.227 130.349 177.68 130.349C177.133 130.349 176.608 130.563 176.218 130.946C175.827 131.329 175.602 131.85 175.592 132.397Z" fill="#D741D1"/>
<path d="M98.3248 87.3623H92.0599C90.9526 87.3636 89.891 87.804 89.108 88.587C88.325 89.37 87.8846 90.4316 87.8833 91.5389V97.8038C87.8833 98.3577 88.1033 98.8889 88.495 99.2805C88.8866 99.6721 89.4178 99.8922 89.9716 99.8922C90.5255 99.8922 91.0566 99.6721 91.4483 99.2805C91.8399 98.8889 92.0599 98.3577 92.0599 97.8038V91.5389H98.3248C98.8716 91.5283 99.3925 91.3036 99.7754 90.9131C100.158 90.5226 100.373 89.9975 100.373 89.4506C100.373 88.9037 100.158 88.3786 99.7754 87.9881C99.3925 87.5977 98.8716 87.373 98.3248 87.3623ZM150.533 91.5389H156.797V97.8038C156.808 98.3506 157.033 98.8715 157.423 99.2544C157.814 99.6373 158.339 99.8518 158.886 99.8518C159.433 99.8518 159.958 99.6372 160.348 99.2543C160.739 98.8713 160.963 98.3505 160.974 97.8037V91.5389C160.973 90.4316 160.532 89.37 159.749 88.587C158.966 87.804 157.905 87.3636 156.797 87.3623H150.533C149.986 87.373 149.465 87.5977 149.082 87.9881C148.699 88.3786 148.485 88.9037 148.485 89.4506C148.485 89.9975 148.699 90.5226 149.082 90.9131C149.465 91.3036 149.986 91.5283 150.533 91.5389ZM98.3248 147.923H92.0599V141.658C92.0492 141.111 91.8245 140.591 91.434 140.208C91.0436 139.825 90.5185 139.61 89.9715 139.61C89.4246 139.61 88.8996 139.825 88.5091 140.208C88.1186 140.591 87.8939 141.112 87.8833 141.658V147.923C87.8846 149.031 88.325 150.092 89.108 150.875C89.891 151.658 90.9526 152.099 92.0599 152.1H98.3248C98.8716 152.089 99.3925 151.864 99.7754 151.474C100.158 151.084 100.373 150.558 100.373 150.012C100.373 149.465 100.158 148.94 99.7754 148.549C99.3925 148.159 98.8716 147.934 98.3248 147.923ZM150.533 152.1H156.797C157.905 152.099 158.966 151.658 159.749 150.875C160.532 150.092 160.973 149.031 160.974 147.923V141.658C160.974 141.104 160.754 140.573 160.362 140.182C159.971 139.79 159.44 139.57 158.886 139.57C158.332 139.57 157.801 139.79 157.409 140.182C157.017 140.573 156.797 141.104 156.797 141.658V147.923H150.533C149.986 147.934 149.465 148.159 149.082 148.549C148.699 148.94 148.485 149.465 148.485 150.012C148.485 150.558 148.699 151.084 149.082 151.474C149.465 151.864 149.986 152.089 150.533 152.1Z" fill="white"/>
<path d="M191.075 83.5441C190.238 82.7207 189.23 82.0929 188.122 81.7057V79.0085C188.12 76.7938 187.239 74.6705 185.673 73.1045C184.107 71.5385 181.983 70.6576 179.769 70.6553H79.53C77.3153 70.6576 75.192 71.5385 73.626 73.1045C72.0599 74.6705 71.1791 76.7938 71.1768 79.0085V160.452C71.1791 162.667 72.0599 164.79 73.626 166.357C75.192 167.923 77.3153 168.803 79.53 168.806H179.769C181.983 168.803 184.107 167.923 185.673 166.357C187.239 164.79 188.12 162.667 188.122 160.452V104.216L194.028 98.3101C195.585 96.7387 196.459 94.6159 196.459 92.4036C196.459 90.1912 195.585 88.0684 194.028 86.4971L191.075 83.5441ZM183.945 160.452C183.944 161.56 183.504 162.621 182.721 163.404C181.938 164.187 180.876 164.628 179.769 164.629H79.53C78.4227 164.628 77.3611 164.187 76.5781 163.404C75.7951 162.621 75.3546 161.56 75.3534 160.452V79.0085C75.3546 77.9012 75.7951 76.8396 76.5781 76.0566C77.3611 75.2736 78.4227 74.8332 79.53 74.8319H179.769C180.876 74.8332 181.938 75.2736 182.721 76.0566C183.504 76.8396 183.944 77.9012 183.945 79.0085V81.2885C182.18 81.5095 180.536 82.3016 179.263 83.5441L169.327 93.4793V85.2734C169.325 83.6124 168.665 82.02 167.49 80.8455C166.316 79.671 164.723 79.0103 163.062 79.0085H85.7949C84.1339 79.0103 82.5415 79.671 81.3669 80.8455C80.1924 82.02 79.5318 83.6124 79.53 85.2734V154.188C79.5318 155.849 80.1924 157.441 81.3669 158.616C82.5415 159.79 84.1339 160.451 85.7949 160.452H163.062C164.723 160.451 166.316 159.79 167.49 158.616C168.665 157.441 169.325 155.849 169.327 154.188V123.011L183.945 108.393V160.452ZM130.881 146.69C131.428 147.24 132.119 147.627 132.874 147.806C133.63 147.984 134.42 147.948 135.156 147.7L148.913 143.114C149.221 143.011 149.5 142.839 149.729 142.609L165.151 127.187V154.188C165.15 154.741 164.93 155.272 164.538 155.664C164.147 156.055 163.616 156.275 163.062 156.276H85.7949C85.2412 156.275 84.7104 156.055 84.3189 155.664C83.9273 155.272 83.7072 154.741 83.7066 154.188V85.2734C83.7072 84.7197 83.9273 84.1889 84.3189 83.7974C84.7104 83.4059 85.2412 83.1857 85.7949 83.1851H163.062C163.616 83.1857 164.147 83.4059 164.538 83.7974C164.93 84.1889 165.15 84.7197 165.151 85.2734V97.6558L134.962 127.843C134.733 128.073 134.561 128.352 134.458 128.66L129.874 142.416C129.626 143.152 129.588 143.942 129.766 144.697C129.944 145.453 130.331 146.143 130.881 146.69ZM191.075 95.357L147.125 139.307L133.834 143.737L138.264 130.447L182.216 86.4971C183.011 85.7372 184.069 85.3132 185.169 85.3132C186.269 85.3132 187.327 85.7372 188.122 86.4971L191.075 89.45C191.854 90.2358 192.29 91.2973 192.29 92.4035C192.29 93.5098 191.854 94.5713 191.075 95.357Z" fill="#333333"/>
</svg>
