<svg width="268" height="268" viewBox="0 0 268 268" fill="none" xmlns="http://www.w3.org/2000/svg">
<rect x="0.213379" width="267.303" height="267.303" fill="white"/>
<path d="M33.2865 217.17L29.7665 211.054H27.8525V217.17H25.3445V201.88H30.6245C31.7978 201.88 32.7878 202.085 33.5945 202.496C34.4158 202.907 35.0245 203.457 35.4205 204.146C35.8311 204.835 36.0365 205.605 36.0365 206.456C36.0365 207.453 35.7431 208.363 35.1565 209.184C34.5845 209.991 33.6971 210.541 32.4945 210.834L36.2785 217.17H33.2865ZM27.8525 209.052H30.6245C31.5631 209.052 32.2671 208.817 32.7365 208.348C33.2205 207.879 33.4625 207.248 33.4625 206.456C33.4625 205.664 33.2278 205.048 32.7585 204.608C32.2891 204.153 31.5778 203.926 30.6245 203.926H27.8525V209.052ZM49.9149 210.812C49.9149 211.267 49.8855 211.677 49.8269 212.044H40.5649C40.6382 213.012 40.9975 213.789 41.6429 214.376C42.2882 214.963 43.0802 215.256 44.0189 215.256C45.3682 215.256 46.3215 214.691 46.8789 213.562H49.5849C49.2182 214.677 48.5509 215.593 47.5829 216.312C46.6295 217.016 45.4415 217.368 44.0189 217.368C42.8602 217.368 41.8189 217.111 40.8949 216.598C39.9855 216.07 39.2669 215.337 38.7389 214.398C38.2255 213.445 37.9689 212.345 37.9689 211.098C37.9689 209.851 38.2182 208.759 38.7169 207.82C39.2302 206.867 39.9415 206.133 40.8509 205.62C41.7749 205.107 42.8309 204.85 44.0189 204.85C45.1629 204.85 46.1822 205.099 47.0769 205.598C47.9715 206.097 48.6682 206.801 49.1669 207.71C49.6655 208.605 49.9149 209.639 49.9149 210.812ZM47.2969 210.02C47.2822 209.096 46.9522 208.355 46.3069 207.798C45.6615 207.241 44.8622 206.962 43.9089 206.962C43.0435 206.962 42.3029 207.241 41.6869 207.798C41.0709 208.341 40.7042 209.081 40.5869 210.02H47.2969ZM56.739 211.12L62.327 217.17H58.939L54.451 211.956V217.17H51.943V200.89H54.451V210.35L58.851 205.048H62.327L56.739 211.12ZM62.8486 211.054C62.8486 209.837 63.098 208.759 63.5966 207.82C64.11 206.881 64.7993 206.155 65.6646 205.642C66.5446 205.114 67.5126 204.85 68.5686 204.85C69.522 204.85 70.3506 205.041 71.0546 205.422C71.7733 205.789 72.3453 206.251 72.7706 206.808V205.048H75.3006V217.17H72.7706V215.366C72.3453 215.938 71.766 216.415 71.0326 216.796C70.2993 217.177 69.4633 217.368 68.5246 217.368C67.4833 217.368 66.53 217.104 65.6646 216.576C64.7993 216.033 64.11 215.285 63.5966 214.332C63.098 213.364 62.8486 212.271 62.8486 211.054ZM72.7706 211.098C72.7706 210.262 72.5946 209.536 72.2426 208.92C71.9053 208.304 71.458 207.835 70.9006 207.512C70.3433 207.189 69.742 207.028 69.0966 207.028C68.4513 207.028 67.85 207.189 67.2926 207.512C66.7353 207.82 66.2806 208.282 65.9286 208.898C65.5913 209.499 65.4226 210.218 65.4226 211.054C65.4226 211.89 65.5913 212.623 65.9286 213.254C66.2806 213.885 66.7353 214.369 67.2926 214.706C67.8646 215.029 68.466 215.19 69.0966 215.19C69.742 215.19 70.3433 215.029 70.9006 214.706C71.458 214.383 71.9053 213.914 72.2426 213.298C72.5946 212.667 72.7706 211.934 72.7706 211.098ZM89.0668 205.048L81.6308 222.868H79.0348L81.4988 216.972L76.7248 205.048H79.5188L82.9288 214.288L86.4708 205.048H89.0668ZM89.6835 211.054C89.6835 209.837 89.9328 208.759 90.4315 207.82C90.9448 206.881 91.6341 206.155 92.4995 205.642C93.3795 205.114 94.3475 204.85 95.4035 204.85C96.3568 204.85 97.1855 205.041 97.8895 205.422C98.6081 205.789 99.1801 206.251 99.6055 206.808V205.048H102.135V217.17H99.6055V215.366C99.1801 215.938 98.6008 216.415 97.8675 216.796C97.1341 217.177 96.2981 217.368 95.3595 217.368C94.3181 217.368 93.3648 217.104 92.4995 216.576C91.6341 216.033 90.9448 215.285 90.4315 214.332C89.9328 213.364 89.6835 212.271 89.6835 211.054ZM99.6055 211.098C99.6055 210.262 99.4295 209.536 99.0775 208.92C98.7401 208.304 98.2928 207.835 97.7355 207.512C97.1781 207.189 96.5768 207.028 95.9315 207.028C95.2861 207.028 94.6848 207.189 94.1275 207.512C93.5701 207.82 93.1155 208.282 92.7635 208.898C92.4261 209.499 92.2575 210.218 92.2575 211.054C92.2575 211.89 92.4261 212.623 92.7635 213.254C93.1155 213.885 93.5701 214.369 94.1275 214.706C94.6995 215.029 95.3008 215.19 95.9315 215.19C96.5768 215.19 97.1781 215.029 97.7355 214.706C98.2928 214.383 98.7401 213.914 99.0775 213.298C99.4295 212.667 99.6055 211.934 99.6055 211.098ZM109.39 217.368C108.436 217.368 107.578 217.199 106.816 216.862C106.068 216.51 105.474 216.041 105.034 215.454C104.594 214.853 104.359 214.185 104.33 213.452H106.926C106.97 213.965 107.212 214.398 107.652 214.75C108.106 215.087 108.671 215.256 109.346 215.256C110.05 215.256 110.592 215.124 110.974 214.86C111.37 214.581 111.568 214.229 111.568 213.804C111.568 213.349 111.348 213.012 110.908 212.792C110.482 212.572 109.8 212.33 108.862 212.066C107.952 211.817 107.212 211.575 106.64 211.34C106.068 211.105 105.569 210.746 105.144 210.262C104.733 209.778 104.528 209.14 104.528 208.348C104.528 207.703 104.718 207.116 105.1 206.588C105.481 206.045 106.024 205.62 106.728 205.312C107.446 205.004 108.268 204.85 109.192 204.85C110.57 204.85 111.678 205.202 112.514 205.906C113.364 206.595 113.819 207.541 113.878 208.744H111.37C111.326 208.201 111.106 207.769 110.71 207.446C110.314 207.123 109.778 206.962 109.104 206.962C108.444 206.962 107.938 207.087 107.586 207.336C107.234 207.585 107.058 207.915 107.058 208.326C107.058 208.649 107.175 208.92 107.41 209.14C107.644 209.36 107.93 209.536 108.268 209.668C108.605 209.785 109.104 209.939 109.764 210.13C110.644 210.365 111.362 210.607 111.92 210.856C112.492 211.091 112.983 211.443 113.394 211.912C113.804 212.381 114.017 213.005 114.032 213.782C114.032 214.471 113.841 215.087 113.46 215.63C113.078 216.173 112.536 216.598 111.832 216.906C111.142 217.214 110.328 217.368 109.39 217.368ZM115.466 211.054C115.466 209.837 115.715 208.759 116.214 207.82C116.727 206.881 117.416 206.155 118.282 205.642C119.162 205.114 120.13 204.85 121.186 204.85C122.139 204.85 122.968 205.041 123.672 205.422C124.39 205.789 124.962 206.251 125.388 206.808V205.048H127.918V217.17H125.388V215.366C124.962 215.938 124.383 216.415 123.65 216.796C122.916 217.177 122.08 217.368 121.142 217.368C120.1 217.368 119.147 217.104 118.282 216.576C117.416 216.033 116.727 215.285 116.214 214.332C115.715 213.364 115.466 212.271 115.466 211.054ZM125.388 211.098C125.388 210.262 125.212 209.536 124.86 208.92C124.522 208.304 124.075 207.835 123.518 207.512C122.96 207.189 122.359 207.028 121.714 207.028C121.068 207.028 120.467 207.189 119.91 207.512C119.352 207.82 118.898 208.282 118.546 208.898C118.208 209.499 118.04 210.218 118.04 211.054C118.04 211.89 118.208 212.623 118.546 213.254C118.898 213.885 119.352 214.369 119.91 214.706C120.482 215.029 121.083 215.19 121.714 215.19C122.359 215.19 122.96 215.029 123.518 214.706C124.075 214.383 124.522 213.914 124.86 213.298C125.212 212.667 125.388 211.934 125.388 211.098ZM146.739 206.434C146.739 207.211 146.555 207.945 146.189 208.634C145.822 209.323 145.235 209.888 144.429 210.328C143.622 210.753 142.588 210.966 141.327 210.966H138.555V217.17H136.047V201.88H141.327C142.5 201.88 143.49 202.085 144.297 202.496C145.118 202.892 145.727 203.435 146.123 204.124C146.533 204.813 146.739 205.583 146.739 206.434ZM141.327 208.92C142.28 208.92 142.991 208.707 143.461 208.282C143.93 207.842 144.165 207.226 144.165 206.434C144.165 204.762 143.219 203.926 141.327 203.926H138.555V208.92H141.327ZM159.801 210.812C159.801 211.267 159.771 211.677 159.713 212.044H150.451C150.524 213.012 150.883 213.789 151.529 214.376C152.174 214.963 152.966 215.256 153.905 215.256C155.254 215.256 156.207 214.691 156.765 213.562H159.471C159.104 214.677 158.437 215.593 157.469 216.312C156.515 217.016 155.327 217.368 153.905 217.368C152.746 217.368 151.705 217.111 150.781 216.598C149.871 216.07 149.153 215.337 148.625 214.398C148.111 213.445 147.855 212.345 147.855 211.098C147.855 209.851 148.104 208.759 148.603 207.82C149.116 206.867 149.827 206.133 150.737 205.62C151.661 205.107 152.717 204.85 153.905 204.85C155.049 204.85 156.068 205.099 156.963 205.598C157.857 206.097 158.554 206.801 159.053 207.71C159.551 208.605 159.801 209.639 159.801 210.812ZM157.183 210.02C157.168 209.096 156.838 208.355 156.193 207.798C155.547 207.241 154.748 206.962 153.795 206.962C152.929 206.962 152.189 207.241 151.573 207.798C150.957 208.341 150.59 209.081 150.473 210.02H157.183ZM164.337 206.808C164.703 206.192 165.187 205.715 165.789 205.378C166.405 205.026 167.131 204.85 167.967 204.85V207.446H167.329C166.346 207.446 165.598 207.695 165.085 208.194C164.586 208.693 164.337 209.558 164.337 210.79V217.17H161.829V205.048H164.337V206.808ZM168.996 211.054C168.996 209.837 169.245 208.759 169.744 207.82C170.257 206.881 170.947 206.155 171.812 205.642C172.692 205.114 173.66 204.85 174.716 204.85C175.669 204.85 176.498 205.041 177.202 205.422C177.921 205.789 178.493 206.251 178.918 206.808V205.048H181.448V217.17H178.918V215.366C178.493 215.938 177.913 216.415 177.18 216.796C176.447 217.177 175.611 217.368 174.672 217.368C173.631 217.368 172.677 217.104 171.812 216.576C170.947 216.033 170.257 215.285 169.744 214.332C169.245 213.364 168.996 212.271 168.996 211.054ZM178.918 211.098C178.918 210.262 178.742 209.536 178.39 208.92C178.053 208.304 177.605 207.835 177.048 207.512C176.491 207.189 175.889 207.028 175.244 207.028C174.599 207.028 173.997 207.189 173.44 207.512C172.883 207.82 172.428 208.282 172.076 208.898C171.739 209.499 171.57 210.218 171.57 211.054C171.57 211.89 171.739 212.623 172.076 213.254C172.428 213.885 172.883 214.369 173.44 214.706C174.012 215.029 174.613 215.19 175.244 215.19C175.889 215.19 176.491 215.029 177.048 214.706C177.605 214.383 178.053 213.914 178.39 213.298C178.742 212.667 178.918 211.934 178.918 211.098ZM190.418 204.85C191.372 204.85 192.222 205.048 192.97 205.444C193.733 205.84 194.327 206.427 194.752 207.204C195.178 207.981 195.39 208.92 195.39 210.02V217.17H192.904V210.394C192.904 209.309 192.633 208.48 192.09 207.908C191.548 207.321 190.807 207.028 189.868 207.028C188.93 207.028 188.182 207.321 187.624 207.908C187.082 208.48 186.81 209.309 186.81 210.394V217.17H184.302V205.048H186.81V206.434C187.221 205.935 187.742 205.547 188.372 205.268C189.018 204.989 189.7 204.85 190.418 204.85ZM203.033 204.85C203.972 204.85 204.801 205.041 205.519 205.422C206.253 205.789 206.825 206.251 207.235 206.808V205.048H209.765V217.368C209.765 218.483 209.531 219.473 209.061 220.338C208.592 221.218 207.91 221.907 207.015 222.406C206.135 222.905 205.079 223.154 203.847 223.154C202.205 223.154 200.841 222.765 199.755 221.988C198.67 221.225 198.054 220.184 197.907 218.864H200.393C200.584 219.495 200.987 220.001 201.603 220.382C202.234 220.778 202.982 220.976 203.847 220.976C204.859 220.976 205.673 220.668 206.289 220.052C206.92 219.436 207.235 218.541 207.235 217.368V215.344C206.81 215.916 206.231 216.4 205.497 216.796C204.779 217.177 203.957 217.368 203.033 217.368C201.977 217.368 201.009 217.104 200.129 216.576C199.264 216.033 198.575 215.285 198.061 214.332C197.563 213.364 197.313 212.271 197.313 211.054C197.313 209.837 197.563 208.759 198.061 207.82C198.575 206.881 199.264 206.155 200.129 205.642C201.009 205.114 201.977 204.85 203.033 204.85ZM207.235 211.098C207.235 210.262 207.059 209.536 206.707 208.92C206.37 208.304 205.923 207.835 205.365 207.512C204.808 207.189 204.207 207.028 203.561 207.028C202.916 207.028 202.315 207.189 201.757 207.512C201.2 207.82 200.745 208.282 200.393 208.898C200.056 209.499 199.887 210.218 199.887 211.054C199.887 211.89 200.056 212.623 200.393 213.254C200.745 213.885 201.2 214.369 201.757 214.706C202.329 215.029 202.931 215.19 203.561 215.19C204.207 215.19 204.808 215.029 205.365 214.706C205.923 214.383 206.37 213.914 206.707 213.298C207.059 212.667 207.235 211.934 207.235 211.098ZM217.415 211.12L223.003 217.17H219.615L215.127 211.956V217.17H212.619V200.89H215.127V210.35L219.527 205.048H223.003L217.415 211.12ZM223.525 211.054C223.525 209.837 223.774 208.759 224.273 207.82C224.786 206.881 225.476 206.155 226.341 205.642C227.221 205.114 228.189 204.85 229.245 204.85C230.198 204.85 231.027 205.041 231.731 205.422C232.45 205.789 233.022 206.251 233.447 206.808V205.048H235.977V217.17H233.447V215.366C233.022 215.938 232.442 216.415 231.709 216.796C230.976 217.177 230.14 217.368 229.201 217.368C228.16 217.368 227.206 217.104 226.341 216.576C225.476 216.033 224.786 215.285 224.273 214.332C223.774 213.364 223.525 212.271 223.525 211.054ZM233.447 211.098C233.447 210.262 233.271 209.536 232.919 208.92C232.582 208.304 232.134 207.835 231.577 207.512C231.02 207.189 230.418 207.028 229.773 207.028C229.128 207.028 228.526 207.189 227.969 207.512C227.412 207.82 226.957 208.282 226.605 208.898C226.268 209.499 226.099 210.218 226.099 211.054C226.099 211.89 226.268 212.623 226.605 213.254C226.957 213.885 227.412 214.369 227.969 214.706C228.541 215.029 229.142 215.19 229.773 215.19C230.418 215.19 231.02 215.029 231.577 214.706C232.134 214.383 232.582 213.914 232.919 213.298C233.271 212.667 233.447 211.934 233.447 211.098ZM241.757 207.094V213.804C241.757 214.259 241.86 214.589 242.065 214.794C242.285 214.985 242.652 215.08 243.165 215.08H244.705V217.17H242.725C241.596 217.17 240.731 216.906 240.129 216.378C239.528 215.85 239.227 214.992 239.227 213.804V207.094H237.797V205.048H239.227V202.034H241.757V205.048H244.705V207.094H241.757ZM106.628 246.146H111.798V248.17H104.12V232.88H106.628V246.146ZM124.433 236.048V248.17H121.925V246.74C121.529 247.239 121.009 247.635 120.363 247.928C119.733 248.207 119.058 248.346 118.339 248.346C117.386 248.346 116.528 248.148 115.765 247.752C115.017 247.356 114.423 246.769 113.983 245.992C113.558 245.215 113.345 244.276 113.345 243.176V236.048H115.831V242.802C115.831 243.887 116.103 244.723 116.645 245.31C117.188 245.882 117.929 246.168 118.867 246.168C119.806 246.168 120.547 245.882 121.089 245.31C121.647 244.723 121.925 243.887 121.925 242.802V236.048H124.433ZM133.418 235.85C134.372 235.85 135.222 236.048 135.97 236.444C136.733 236.84 137.327 237.427 137.752 238.204C138.178 238.981 138.39 239.92 138.39 241.02V248.17H135.904V241.394C135.904 240.309 135.633 239.48 135.09 238.908C134.548 238.321 133.807 238.028 132.868 238.028C131.93 238.028 131.182 238.321 130.624 238.908C130.082 239.48 129.81 240.309 129.81 241.394V248.17H127.302V236.048H129.81V237.434C130.221 236.935 130.742 236.547 131.372 236.268C132.018 235.989 132.7 235.85 133.418 235.85ZM140.314 242.054C140.314 240.837 140.563 239.759 141.062 238.82C141.575 237.881 142.264 237.155 143.13 236.642C144.01 236.114 144.978 235.85 146.034 235.85C146.987 235.85 147.816 236.041 148.52 236.422C149.238 236.789 149.81 237.251 150.236 237.808V236.048H152.766V248.17H150.236V246.366C149.81 246.938 149.231 247.415 148.498 247.796C147.764 248.177 146.928 248.368 145.99 248.368C144.948 248.368 143.995 248.104 143.13 247.576C142.264 247.033 141.575 246.285 141.062 245.332C140.563 244.364 140.314 243.271 140.314 242.054ZM150.236 242.098C150.236 241.262 150.06 240.536 149.708 239.92C149.37 239.304 148.923 238.835 148.366 238.512C147.808 238.189 147.207 238.028 146.562 238.028C145.916 238.028 145.315 238.189 144.758 238.512C144.2 238.82 143.746 239.282 143.394 239.898C143.056 240.499 142.888 241.218 142.888 242.054C142.888 242.89 143.056 243.623 143.394 244.254C143.746 244.885 144.2 245.369 144.758 245.706C145.33 246.029 145.931 246.19 146.562 246.19C147.207 246.19 147.808 246.029 148.366 245.706C148.923 245.383 149.37 244.914 149.708 244.298C150.06 243.667 150.236 242.934 150.236 242.098ZM160.416 242.12L166.004 248.17H162.616L158.128 242.956V248.17H155.62V231.89H158.128V241.35L162.528 236.048H166.004L160.416 242.12Z" fill="#262626"/>
<g clip-path="url(#clip0_1695_1101)">
<path d="M198.665 139.277H192.86V71.9078C192.86 68.2324 189.873 65.2461 186.198 65.2461H81.5319C77.8565 65.2461 74.8702 68.2324 74.8702 71.9078V139.256H69.0647C67.937 139.277 67.0391 140.175 67.0391 141.302C67.0391 150.24 74.3064 157.508 83.2443 157.508H184.485C193.423 157.508 200.691 150.24 200.691 141.302C200.691 140.175 199.793 139.277 198.665 139.277ZM78.9215 71.9078C78.9215 70.446 80.0701 69.2974 81.5319 69.2974H186.177C187.639 69.2974 188.787 70.446 188.787 71.9078V139.256H78.9215V71.9078ZM184.485 153.456H83.2443C77.23 153.456 72.2389 149.071 71.2574 143.328H196.472C195.512 149.071 190.5 153.456 184.485 153.456Z" fill="black"/>
<path d="M179.202 74.3926H88.5276C87.3999 74.3926 86.502 75.2906 86.502 76.4182V132.26C86.502 133.387 87.3999 134.285 88.5276 134.285H179.181C180.309 134.285 181.207 133.387 181.207 132.26V76.4182C181.228 75.2906 180.309 74.3926 179.202 74.3926ZM177.176 130.234H90.5533V78.4439H177.155V130.234H177.176Z" fill="black"/>
<path d="M118.975 118.664C119.351 118.957 119.79 119.103 120.228 119.103C120.834 119.103 121.419 118.832 121.815 118.33C122.504 117.453 122.358 116.179 121.481 115.49L107.928 104.756L122.149 93.1454C123.027 92.4353 123.152 91.1615 122.442 90.3053C121.732 89.4282 120.458 89.3029 119.602 90.0129L103.417 103.211C102.937 103.608 102.666 104.172 102.666 104.798C102.666 105.404 102.958 105.988 103.438 106.364L118.975 118.664ZM159.802 104.756L146.249 115.49C145.371 116.179 145.225 117.453 145.914 118.33C146.311 118.832 146.917 119.103 147.501 119.103C147.94 119.103 148.379 118.957 148.754 118.664L164.291 106.364C164.772 105.988 165.064 105.404 165.064 104.798C165.064 104.193 164.793 103.608 164.312 103.211L148.128 90.0129C147.251 89.3029 145.977 89.4282 145.288 90.3053C144.578 91.1824 144.703 92.4562 145.58 93.1454L159.802 104.756ZM128.164 120.419C128.393 120.502 128.602 120.544 128.832 120.544C129.667 120.544 130.44 120.022 130.732 119.187L140.694 90.8273C141.07 89.7623 140.506 88.6137 139.462 88.2378C138.396 87.8619 137.248 88.4258 136.872 89.4699L126.911 117.829C126.556 118.894 127.12 120.043 128.164 120.419Z" fill="black"/>
</g>
<defs>
<clipPath id="clip0_1695_1101">
<rect width="133.652" height="133.652" fill="white" transform="translate(67.0391 44.5508)"/>
</clipPath>
</defs>
</svg>
