<svg width="140" height="55" viewBox="0 0 140 55" fill="none" xmlns="http://www.w3.org/2000/svg">
<rect width="140" height="55" rx="27.5" fill="#262626"/>
<path d="M39.595 25.07C39.3243 24.5007 38.9323 24.062 38.419 23.754C37.9057 23.4367 37.3083 23.278 36.627 23.278C35.9457 23.278 35.3297 23.4367 34.779 23.754C34.2377 24.062 33.8083 24.51 33.491 25.098C33.183 25.6767 33.029 26.3487 33.029 27.114C33.029 27.8793 33.183 28.5513 33.491 29.13C33.8083 29.7087 34.2377 30.1567 34.779 30.474C35.3297 30.782 35.9457 30.936 36.627 30.936C37.579 30.936 38.363 30.6513 38.979 30.082C39.595 29.5127 39.9543 28.7427 40.057 27.772H36.165V26.736H41.415V27.716C41.3403 28.5187 41.0883 29.256 40.659 29.928C40.2297 30.5907 39.665 31.118 38.965 31.51C38.265 31.8927 37.4857 32.084 36.627 32.084C35.7217 32.084 34.8957 31.874 34.149 31.454C33.4023 31.0247 32.8097 30.432 32.371 29.676C31.9417 28.92 31.727 28.066 31.727 27.114C31.727 26.162 31.9417 25.308 32.371 24.552C32.8097 23.7867 33.4023 23.194 34.149 22.774C34.8957 22.3447 35.7217 22.13 36.627 22.13C37.663 22.13 38.5777 22.3867 39.371 22.9C40.1737 23.4133 40.757 24.1367 41.121 25.07H39.595ZM50.0995 27.87C50.0995 28.1127 50.0855 28.3693 50.0575 28.64H43.9255C43.9722 29.396 44.2288 29.9887 44.6955 30.418C45.1715 30.838 45.7455 31.048 46.4175 31.048C46.9682 31.048 47.4255 30.922 47.7895 30.67C48.1628 30.4087 48.4242 30.0633 48.5735 29.634H49.9455C49.7402 30.3713 49.3295 30.9733 48.7135 31.44C48.0975 31.8973 47.3322 32.126 46.4175 32.126C45.6895 32.126 45.0362 31.9627 44.4575 31.636C43.8882 31.3093 43.4402 30.8473 43.1135 30.25C42.7868 29.6433 42.6235 28.9433 42.6235 28.15C42.6235 27.3567 42.7822 26.6613 43.0995 26.064C43.4168 25.4667 43.8602 25.0093 44.4295 24.692C45.0082 24.3653 45.6708 24.202 46.4175 24.202C47.1455 24.202 47.7895 24.3607 48.3495 24.678C48.9095 24.9953 49.3388 25.434 49.6375 25.994C49.9455 26.5447 50.0995 27.17 50.0995 27.87ZM48.7835 27.604C48.7835 27.1187 48.6762 26.7033 48.4615 26.358C48.2468 26.0033 47.9528 25.7373 47.5795 25.56C47.2155 25.3733 46.8095 25.28 46.3615 25.28C45.7175 25.28 45.1668 25.4853 44.7095 25.896C44.2615 26.3067 44.0048 26.876 43.9395 27.604H48.7835ZM53.3351 25.378V29.9C53.3351 30.2733 53.4145 30.5393 53.5731 30.698C53.7318 30.8473 54.0071 30.922 54.3991 30.922H55.3371V32H54.1891C53.4798 32 52.9478 31.8367 52.5931 31.51C52.2385 31.1833 52.0611 30.6467 52.0611 29.9V25.378H51.0671V24.328H52.0611V22.396H53.3351V24.328H55.3371V25.378H53.3351ZM63.3292 32.126C62.7412 32.126 62.2138 32.028 61.7472 31.832C61.2805 31.6267 60.9118 31.3467 60.6412 30.992C60.3705 30.628 60.2212 30.2127 60.1932 29.746H61.5092C61.5465 30.1287 61.7238 30.4413 62.0412 30.684C62.3678 30.9267 62.7925 31.048 63.3152 31.048C63.8005 31.048 64.1832 30.9407 64.4632 30.726C64.7432 30.5113 64.8832 30.2407 64.8832 29.914C64.8832 29.578 64.7338 29.3307 64.4352 29.172C64.1365 29.004 63.6745 28.8407 63.0492 28.682C62.4798 28.5327 62.0132 28.3833 61.6492 28.234C61.2945 28.0753 60.9865 27.8467 60.7252 27.548C60.4732 27.24 60.3472 26.8387 60.3472 26.344C60.3472 25.952 60.4638 25.5927 60.6972 25.266C60.9305 24.9393 61.2618 24.6827 61.6912 24.496C62.1205 24.3 62.6105 24.202 63.1612 24.202C64.0105 24.202 64.6965 24.4167 65.2192 24.846C65.7418 25.2753 66.0218 25.8633 66.0592 26.61H64.7852C64.7572 26.2087 64.5938 25.8867 64.2952 25.644C64.0058 25.4013 63.6138 25.28 63.1192 25.28C62.6618 25.28 62.2978 25.378 62.0272 25.574C61.7565 25.77 61.6212 26.0267 61.6212 26.344C61.6212 26.596 61.7005 26.806 61.8592 26.974C62.0272 27.1327 62.2325 27.2633 62.4752 27.366C62.7272 27.4593 63.0725 27.5667 63.5112 27.688C64.0618 27.8373 64.5098 27.9867 64.8552 28.136C65.2005 28.276 65.4945 28.4907 65.7372 28.78C65.9892 29.0693 66.1198 29.4473 66.1292 29.914C66.1292 30.334 66.0125 30.712 65.7792 31.048C65.5458 31.384 65.2145 31.65 64.7852 31.846C64.3652 32.0327 63.8798 32.126 63.3292 32.126ZM69.4816 25.378V29.9C69.4816 30.2733 69.5609 30.5393 69.7196 30.698C69.8783 30.8473 70.1536 30.922 70.5456 30.922H71.4836V32H70.3356C69.6263 32 69.0943 31.8367 68.7396 31.51C68.3849 31.1833 68.2076 30.6467 68.2076 29.9V25.378H67.2136V24.328H68.2076V22.396H69.4816V24.328H71.4836V25.378H69.4816ZM72.5512 28.136C72.5512 27.352 72.7099 26.666 73.0272 26.078C73.3446 25.4807 73.7786 25.0187 74.3292 24.692C74.8892 24.3653 75.5099 24.202 76.1912 24.202C76.8632 24.202 77.4466 24.3467 77.9412 24.636C78.4359 24.9253 78.8046 25.2893 79.0472 25.728V24.328H80.3352V32H79.0472V30.572C78.7952 31.02 78.4172 31.3933 77.9132 31.692C77.4186 31.9813 76.8399 32.126 76.1772 32.126C75.4959 32.126 74.8799 31.958 74.3292 31.622C73.7786 31.286 73.3446 30.8147 73.0272 30.208C72.7099 29.6013 72.5512 28.9107 72.5512 28.136ZM79.0472 28.15C79.0472 27.5713 78.9306 27.0673 78.6972 26.638C78.4639 26.2087 78.1466 25.882 77.7452 25.658C77.3532 25.4247 76.9192 25.308 76.4432 25.308C75.9672 25.308 75.5332 25.42 75.1412 25.644C74.7492 25.868 74.4366 26.1947 74.2032 26.624C73.9699 27.0533 73.8532 27.5573 73.8532 28.136C73.8532 28.724 73.9699 29.2373 74.2032 29.676C74.4366 30.1053 74.7492 30.4367 75.1412 30.67C75.5332 30.894 75.9672 31.006 76.4432 31.006C76.9192 31.006 77.3532 30.894 77.7452 30.67C78.1466 30.4367 78.4639 30.1053 78.6972 29.676C78.9306 29.2373 79.0472 28.7287 79.0472 28.15ZM83.7622 25.574C83.9862 25.1353 84.3035 24.7947 84.7142 24.552C85.1342 24.3093 85.6428 24.188 86.2402 24.188V25.504H85.9042C84.4762 25.504 83.7622 26.2787 83.7622 27.828V32H82.4882V24.328H83.7622V25.574ZM89.2648 25.378V29.9C89.2648 30.2733 89.3441 30.5393 89.5028 30.698C89.6615 30.8473 89.9368 30.922 90.3288 30.922H91.2668V32H90.1188C89.4095 32 88.8775 31.8367 88.5228 31.51C88.1681 31.1833 87.9908 30.6467 87.9908 29.9V25.378H86.9968V24.328H87.9908V22.396H89.2648V24.328H91.2668V25.378H89.2648ZM99.8104 27.87C99.8104 28.1127 99.7964 28.3693 99.7684 28.64H93.6364C93.6831 29.396 93.9398 29.9887 94.4064 30.418C94.8824 30.838 95.4564 31.048 96.1284 31.048C96.6791 31.048 97.1364 30.922 97.5004 30.67C97.8738 30.4087 98.1351 30.0633 98.2844 29.634H99.6564C99.4511 30.3713 99.0404 30.9733 98.4244 31.44C97.8084 31.8973 97.0431 32.126 96.1284 32.126C95.4004 32.126 94.7471 31.9627 94.1684 31.636C93.5991 31.3093 93.1511 30.8473 92.8244 30.25C92.4978 29.6433 92.3344 28.9433 92.3344 28.15C92.3344 27.3567 92.4931 26.6613 92.8104 26.064C93.1278 25.4667 93.5711 25.0093 94.1404 24.692C94.7191 24.3653 95.3818 24.202 96.1284 24.202C96.8564 24.202 97.5004 24.3607 98.0604 24.678C98.6204 24.9953 99.0498 25.434 99.3484 25.994C99.6564 26.5447 99.8104 27.17 99.8104 27.87ZM98.4944 27.604C98.4944 27.1187 98.3871 26.7033 98.1724 26.358C97.9578 26.0033 97.6638 25.7373 97.2904 25.56C96.9264 25.3733 96.5204 25.28 96.0724 25.28C95.4284 25.28 94.8778 25.4853 94.4204 25.896C93.9724 26.3067 93.7158 26.876 93.6504 27.604H98.4944ZM101.016 28.136C101.016 27.352 101.175 26.666 101.492 26.078C101.809 25.4807 102.243 25.0187 102.794 24.692C103.354 24.3653 103.979 24.202 104.67 24.202C105.267 24.202 105.823 24.342 106.336 24.622C106.849 24.8927 107.241 25.252 107.512 25.7V21.64H108.8V32H107.512V30.558C107.26 31.0153 106.887 31.3933 106.392 31.692C105.897 31.9813 105.319 32.126 104.656 32.126C103.975 32.126 103.354 31.958 102.794 31.622C102.243 31.286 101.809 30.8147 101.492 30.208C101.175 29.6013 101.016 28.9107 101.016 28.136ZM107.512 28.15C107.512 27.5713 107.395 27.0673 107.162 26.638C106.929 26.2087 106.611 25.882 106.21 25.658C105.818 25.4247 105.384 25.308 104.908 25.308C104.432 25.308 103.998 25.42 103.606 25.644C103.214 25.868 102.901 26.1947 102.668 26.624C102.435 27.0533 102.318 27.5573 102.318 28.136C102.318 28.724 102.435 29.2373 102.668 29.676C102.901 30.1053 103.214 30.4367 103.606 30.67C103.998 30.894 104.432 31.006 104.908 31.006C105.384 31.006 105.818 30.894 106.21 30.67C106.611 30.4367 106.929 30.1053 107.162 29.676C107.395 29.2373 107.512 28.7287 107.512 28.15Z" fill="white"/>
</svg>
