<svg width="476" height="55" viewBox="0 0 476 55" fill="none" xmlns="http://www.w3.org/2000/svg">
<rect width="476" height="55" rx="27.5" fill="#FFBE55"/>
<path d="M223.135 21.436V34H220.615V25.828L217.249 34H215.341L211.957 25.828V34H209.437V21.436H212.299L216.295 30.778L220.291 21.436H223.135ZM224.979 28.978C224.979 27.97 225.177 27.076 225.573 26.296C225.981 25.516 226.527 24.916 227.211 24.496C227.907 24.076 228.681 23.866 229.533 23.866C230.277 23.866 230.925 24.016 231.477 24.316C232.041 24.616 232.491 24.994 232.827 25.45V24.028H235.365V34H232.827V32.542C232.503 33.01 232.053 33.4 231.477 33.712C230.913 34.012 230.259 34.162 229.515 34.162C228.675 34.162 227.907 33.946 227.211 33.514C226.527 33.082 225.981 32.476 225.573 31.696C225.177 30.904 224.979 29.998 224.979 28.978ZM232.827 29.014C232.827 28.402 232.707 27.88 232.467 27.448C232.227 27.004 231.903 26.668 231.495 26.44C231.087 26.2 230.649 26.08 230.181 26.08C229.713 26.08 229.281 26.194 228.885 26.422C228.489 26.65 228.165 26.986 227.913 27.43C227.673 27.862 227.553 28.378 227.553 28.978C227.553 29.578 227.673 30.106 227.913 30.562C228.165 31.006 228.489 31.348 228.885 31.588C229.293 31.828 229.725 31.948 230.181 31.948C230.649 31.948 231.087 31.834 231.495 31.606C231.903 31.366 232.227 31.03 232.467 30.598C232.707 30.154 232.827 29.626 232.827 29.014ZM241.642 34.162C240.826 34.162 240.094 34.018 239.446 33.73C238.798 33.43 238.282 33.028 237.898 32.524C237.526 32.02 237.322 31.462 237.286 30.85H239.824C239.872 31.234 240.058 31.552 240.382 31.804C240.718 32.056 241.132 32.182 241.624 32.182C242.104 32.182 242.476 32.086 242.74 31.894C243.016 31.702 243.154 31.456 243.154 31.156C243.154 30.832 242.986 30.592 242.65 30.436C242.326 30.268 241.804 30.088 241.084 29.896C240.34 29.716 239.728 29.53 239.248 29.338C238.78 29.146 238.372 28.852 238.024 28.456C237.688 28.06 237.52 27.526 237.52 26.854C237.52 26.302 237.676 25.798 237.988 25.342C238.312 24.886 238.768 24.526 239.356 24.262C239.956 23.998 240.658 23.866 241.462 23.866C242.65 23.866 243.598 24.166 244.306 24.766C245.014 25.354 245.404 26.152 245.476 27.16H243.064C243.028 26.764 242.86 26.452 242.56 26.224C242.272 25.984 241.882 25.864 241.39 25.864C240.934 25.864 240.58 25.948 240.328 26.116C240.088 26.284 239.968 26.518 239.968 26.818C239.968 27.154 240.136 27.412 240.472 27.592C240.808 27.76 241.33 27.934 242.038 28.114C242.758 28.294 243.352 28.48 243.82 28.672C244.288 28.864 244.69 29.164 245.026 29.572C245.374 29.968 245.554 30.496 245.566 31.156C245.566 31.732 245.404 32.248 245.08 32.704C244.768 33.16 244.312 33.52 243.712 33.784C243.124 34.036 242.434 34.162 241.642 34.162ZM257.049 24.028V34H254.511V32.74C254.187 33.172 253.761 33.514 253.233 33.766C252.717 34.006 252.153 34.126 251.541 34.126C250.761 34.126 250.071 33.964 249.471 33.64C248.871 33.304 248.397 32.818 248.049 32.182C247.713 31.534 247.545 30.766 247.545 29.878V24.028H250.065V29.518C250.065 30.31 250.263 30.922 250.659 31.354C251.055 31.774 251.595 31.984 252.279 31.984C252.975 31.984 253.521 31.774 253.917 31.354C254.313 30.922 254.511 30.31 254.511 29.518V24.028H257.049ZM265.439 34L262.055 29.752V34H259.535V20.68H262.055V28.258L265.403 24.028H268.679L264.287 29.032L268.715 34H265.439Z" fill="white"/>
</svg>
