<svg width="476" height="55" viewBox="0 0 476 55" fill="none" xmlns="http://www.w3.org/2000/svg">
<rect width="476" height="55" rx="27.5" fill="#FFBE55"/>
<path d="M214.753 21.436C216.073 21.436 217.231 21.694 218.227 22.21C219.235 22.726 220.009 23.464 220.549 24.424C221.101 25.372 221.377 26.476 221.377 27.736C221.377 28.996 221.101 30.1 220.549 31.048C220.009 31.984 219.235 32.71 218.227 33.226C217.231 33.742 216.073 34 214.753 34H210.361V21.436H214.753ZM214.663 31.858C215.983 31.858 217.003 31.498 217.723 30.778C218.443 30.058 218.803 29.044 218.803 27.736C218.803 26.428 218.443 25.408 217.723 24.676C217.003 23.932 215.983 23.56 214.663 23.56H212.881V31.858H214.663ZM222.615 28.978C222.615 27.97 222.813 27.076 223.209 26.296C223.617 25.516 224.163 24.916 224.847 24.496C225.543 24.076 226.317 23.866 227.169 23.866C227.913 23.866 228.561 24.016 229.113 24.316C229.677 24.616 230.127 24.994 230.463 25.45V24.028H233.001V34H230.463V32.542C230.139 33.01 229.689 33.4 229.113 33.712C228.549 34.012 227.895 34.162 227.151 34.162C226.311 34.162 225.543 33.946 224.847 33.514C224.163 33.082 223.617 32.476 223.209 31.696C222.813 30.904 222.615 29.998 222.615 28.978ZM230.463 29.014C230.463 28.402 230.343 27.88 230.103 27.448C229.863 27.004 229.539 26.668 229.131 26.44C228.723 26.2 228.285 26.08 227.817 26.08C227.349 26.08 226.917 26.194 226.521 26.422C226.125 26.65 225.801 26.986 225.549 27.43C225.309 27.862 225.189 28.378 225.189 28.978C225.189 29.578 225.309 30.106 225.549 30.562C225.801 31.006 226.125 31.348 226.521 31.588C226.929 31.828 227.361 31.948 227.817 31.948C228.285 31.948 228.723 31.834 229.131 31.606C229.539 31.366 229.863 31.03 230.103 30.598C230.343 30.154 230.463 29.626 230.463 29.014ZM240.035 26.098H238.289V34H235.733V26.098H234.599V24.028H235.733V23.524C235.733 22.3 236.081 21.4 236.777 20.824C237.473 20.248 238.523 19.978 239.927 20.014V22.138C239.315 22.126 238.889 22.228 238.649 22.444C238.409 22.66 238.289 23.05 238.289 23.614V24.028H240.035V26.098ZM244.602 26.098V30.922C244.602 31.258 244.68 31.504 244.836 31.66C245.004 31.804 245.28 31.876 245.664 31.876H246.834V34H245.25C243.126 34 242.064 32.968 242.064 30.904V26.098H240.876V24.028H242.064V21.562H244.602V24.028H246.834V26.098H244.602ZM247.998 28.978C247.998 27.97 248.196 27.076 248.592 26.296C249 25.516 249.546 24.916 250.23 24.496C250.926 24.076 251.7 23.866 252.552 23.866C253.296 23.866 253.944 24.016 254.496 24.316C255.06 24.616 255.51 24.994 255.846 25.45V24.028H258.384V34H255.846V32.542C255.522 33.01 255.072 33.4 254.496 33.712C253.932 34.012 253.278 34.162 252.534 34.162C251.694 34.162 250.926 33.946 250.23 33.514C249.546 33.082 249 32.476 248.592 31.696C248.196 30.904 247.998 29.998 247.998 28.978ZM255.846 29.014C255.846 28.402 255.726 27.88 255.486 27.448C255.246 27.004 254.922 26.668 254.514 26.44C254.106 26.2 253.668 26.08 253.2 26.08C252.732 26.08 252.3 26.194 251.904 26.422C251.508 26.65 251.184 26.986 250.932 27.43C250.692 27.862 250.572 28.378 250.572 28.978C250.572 29.578 250.692 30.106 250.932 30.562C251.184 31.006 251.508 31.348 251.904 31.588C252.312 31.828 252.744 31.948 253.2 31.948C253.668 31.948 254.106 31.834 254.514 31.606C254.922 31.366 255.246 31.03 255.486 30.598C255.726 30.154 255.846 29.626 255.846 29.014ZM263.366 25.576C263.69 25.048 264.11 24.634 264.626 24.334C265.154 24.034 265.754 23.884 266.426 23.884V26.53H265.76C264.968 26.53 264.368 26.716 263.96 27.088C263.564 27.46 263.366 28.108 263.366 29.032V34H260.846V24.028H263.366V25.576Z" fill="white"/>
</svg>
