<svg width="100" height="50" viewBox="0 0 100 50" fill="none" xmlns="http://www.w3.org/2000/svg">
<rect width="100" height="50" rx="10" fill="#FFBE55"/>
<path d="M24.7972 19.768V26.488C24.7972 27.16 24.9625 27.6773 25.2932 28.04C25.6239 28.4027 26.1092 28.584 26.7492 28.584C27.3892 28.584 27.8799 28.4027 28.2212 28.04C28.5625 27.6773 28.7332 27.16 28.7332 26.488V19.768H31.4692V26.472C31.4692 27.4747 31.2559 28.3227 30.8292 29.016C30.4025 29.7093 29.8265 30.232 29.1012 30.584C28.3865 30.936 27.5865 31.112 26.7012 31.112C25.8159 31.112 25.0212 30.9413 24.3172 30.6C23.6239 30.248 23.0745 29.7253 22.6692 29.032C22.2639 28.328 22.0612 27.4747 22.0612 26.472V19.768H24.7972ZM36.1264 23.336C36.3931 22.92 36.7611 22.584 37.2304 22.328C37.6998 22.072 38.2491 21.944 38.8784 21.944C39.6144 21.944 40.2811 22.1307 40.8784 22.504C41.4758 22.8773 41.9451 23.4107 42.2864 24.104C42.6384 24.7973 42.8144 25.6027 42.8144 26.52C42.8144 27.4373 42.6384 28.248 42.2864 28.952C41.9451 29.6453 41.4758 30.184 40.8784 30.568C40.2811 30.9413 39.6144 31.128 38.8784 31.128C38.2598 31.128 37.7104 31 37.2304 30.744C36.7611 30.488 36.3931 30.1573 36.1264 29.752V35.256H33.3904V22.072H36.1264V23.336ZM40.0304 26.52C40.0304 25.8373 39.8384 25.304 39.4544 24.92C39.0811 24.5253 38.6171 24.328 38.0624 24.328C37.5184 24.328 37.0544 24.5253 36.6704 24.92C36.2971 25.3147 36.1104 25.8533 36.1104 26.536C36.1104 27.2187 36.2971 27.7573 36.6704 28.152C37.0544 28.5467 37.5184 28.744 38.0624 28.744C38.6064 28.744 39.0704 28.5467 39.4544 28.152C39.8384 27.7467 40.0304 27.2027 40.0304 26.52ZM46.9858 19.16V31H44.2498V19.16H46.9858ZM53.0326 31.128C52.1579 31.128 51.3686 30.9413 50.6646 30.568C49.9712 30.1947 49.4219 29.6613 49.0166 28.968C48.6219 28.2747 48.4246 27.464 48.4246 26.536C48.4246 25.6187 48.6272 24.8133 49.0326 24.12C49.4379 23.416 49.9926 22.8773 50.6966 22.504C51.4006 22.1307 52.1899 21.944 53.0646 21.944C53.9392 21.944 54.7286 22.1307 55.4326 22.504C56.1366 22.8773 56.6912 23.416 57.0966 24.12C57.5019 24.8133 57.7046 25.6187 57.7046 26.536C57.7046 27.4533 57.4966 28.264 57.0806 28.968C56.6752 29.6613 56.1152 30.1947 55.4006 30.568C54.6966 30.9413 53.9072 31.128 53.0326 31.128ZM53.0326 28.76C53.5552 28.76 53.9979 28.568 54.3606 28.184C54.7339 27.8 54.9206 27.2507 54.9206 26.536C54.9206 25.8213 54.7392 25.272 54.3766 24.888C54.0246 24.504 53.5872 24.312 53.0646 24.312C52.5312 24.312 52.0886 24.504 51.7366 24.888C51.3846 25.2613 51.2086 25.8107 51.2086 26.536C51.2086 27.2507 51.3792 27.8 51.7206 28.184C52.0726 28.568 52.5099 28.76 53.0326 28.76ZM58.6121 26.52C58.6121 25.6027 58.7827 24.7973 59.1241 24.104C59.4761 23.4107 59.9507 22.8773 60.5481 22.504C61.1454 22.1307 61.8121 21.944 62.5481 21.944C63.1774 21.944 63.7267 22.072 64.1961 22.328C64.6761 22.584 65.0441 22.92 65.3001 23.336V22.072H68.0361V31H65.3001V29.736C65.0334 30.152 64.6601 30.488 64.1801 30.744C63.7107 31 63.1614 31.128 62.5321 31.128C61.8067 31.128 61.1454 30.9413 60.5481 30.568C59.9507 30.184 59.4761 29.6453 59.1241 28.952C58.7827 28.248 58.6121 27.4373 58.6121 26.52ZM65.3001 26.536C65.3001 25.8533 65.1081 25.3147 64.7241 24.92C64.3507 24.5253 63.8921 24.328 63.3481 24.328C62.8041 24.328 62.3401 24.5253 61.9561 24.92C61.5827 25.304 61.3961 25.8373 61.3961 26.52C61.3961 27.2027 61.5827 27.7467 61.9561 28.152C62.3401 28.5467 62.8041 28.744 63.3481 28.744C63.8921 28.744 64.3507 28.5467 64.7241 28.152C65.1081 27.7573 65.3001 27.2187 65.3001 26.536ZM69.4714 26.52C69.4714 25.6027 69.6421 24.7973 69.9834 24.104C70.3354 23.4107 70.8101 22.8773 71.4074 22.504C72.0048 22.1307 72.6714 21.944 73.4074 21.944C73.9941 21.944 74.5274 22.0667 75.0074 22.312C75.4981 22.5573 75.8821 22.888 76.1594 23.304V19.16H78.8954V31H76.1594V29.72C75.9034 30.1467 75.5354 30.488 75.0554 30.744C74.5861 31 74.0368 31.128 73.4074 31.128C72.6714 31.128 72.0048 30.9413 71.4074 30.568C70.8101 30.184 70.3354 29.6453 69.9834 28.952C69.6421 28.248 69.4714 27.4373 69.4714 26.52ZM76.1594 26.536C76.1594 25.8533 75.9674 25.3147 75.5834 24.92C75.2101 24.5253 74.7514 24.328 74.2074 24.328C73.6634 24.328 73.1994 24.5253 72.8154 24.92C72.4421 25.304 72.2554 25.8373 72.2554 26.52C72.2554 27.2027 72.4421 27.7467 72.8154 28.152C73.1994 28.5467 73.6634 28.744 74.2074 28.744C74.7514 28.744 75.2101 28.5467 75.5834 28.152C75.9674 27.7573 76.1594 27.2187 76.1594 26.536Z" fill="white"/>
</svg>
