<svg width="24" height="24" viewBox="0 0 24 24" fill="none" xmlns="http://www.w3.org/2000/svg">
<path d="M12.4351 14.3299L2.91758 8.27314C2.42554 7.94774 2.08097 7.44213 1.95807 6.86517C1.83517 6.28821 1.94378 5.68606 2.2605 5.18839C2.57721 4.69072 3.07671 4.33734 3.65143 4.20434C4.22614 4.07134 4.8301 4.16937 5.33325 4.47732L12.3158 8.92054L18.5851 4.53192C19.0742 4.20046 19.6741 4.07471 20.2552 4.18182C20.8362 4.28893 21.3518 4.62032 21.6906 5.10439C22.0294 5.58847 22.1642 6.18639 22.0659 6.76901C21.9676 7.35162 21.644 7.87218 21.1651 8.21824L12.4351 14.3299Z" fill="#EA4435"/>
<path d="M20.625 19.875H17.625V6.375C17.625 5.77826 17.8621 5.20597 18.284 4.78401C18.706 4.36205 19.2783 4.125 19.875 4.125C20.4717 4.125 21.044 4.36205 21.466 4.78401C21.8879 5.20597 22.125 5.77826 22.125 6.375V18.375C22.125 18.7728 21.967 19.1544 21.6857 19.4357C21.4044 19.717 21.0228 19.875 20.625 19.875Z" fill="#00AC47"/>
<path d="M22.092 6.04884C22.0854 6.00384 22.0859 5.95787 22.0765 5.91294C22.0621 5.84409 22.0353 5.78049 22.0148 5.71404C21.9949 5.63799 21.9709 5.56305 21.9429 5.48957C21.9279 5.45394 21.9048 5.42267 21.8878 5.38802C21.8412 5.28804 21.7872 5.19165 21.7263 5.09964C21.6963 5.05607 21.6588 5.01894 21.6256 4.97769C21.5687 4.90272 21.5072 4.83136 21.4415 4.76402C21.3916 4.71549 21.3348 4.67492 21.2805 4.63119C21.2229 4.58178 21.1628 4.5353 21.1005 4.49192C21.0411 4.45307 20.976 4.42314 20.913 4.38999C20.8467 4.35542 20.7818 4.31777 20.7128 4.29017C20.6461 4.26332 20.575 4.24622 20.5053 4.22574C20.4357 4.20527 20.3664 4.18074 20.2948 4.16747C20.2062 4.15323 20.1168 4.14421 20.0271 4.14047C19.9701 4.13649 19.9137 4.12652 19.8566 4.12697C19.7505 4.13006 19.6448 4.14071 19.5402 4.15884C19.4979 4.16514 19.4554 4.16462 19.4135 4.17332C19.272 4.21656 19.1308 4.26106 18.9901 4.30682C18.9515 4.32332 18.9177 4.34784 18.8802 4.36644C18.4994 4.54416 18.1781 4.82838 17.9554 5.18476C17.7326 5.54114 17.6178 5.95442 17.6248 6.37464V10.6961L21.1648 8.21792C21.5124 7.98461 21.785 7.65556 21.9495 7.27057C22.114 6.88559 22.1634 6.46117 22.0917 6.04869L22.092 6.04884Z" fill="#FFBA00"/>
<path d="M4.125 4.125C4.72174 4.125 5.29403 4.36205 5.71599 4.78401C6.13795 5.20597 6.375 5.77826 6.375 6.375V19.875H3.375C2.97718 19.875 2.59564 19.717 2.31434 19.4357C2.03304 19.1544 1.875 18.7728 1.875 18.375V6.375C1.875 5.77826 2.11205 5.20597 2.53401 4.78401C2.95597 4.36205 3.52826 4.125 4.125 4.125Z" fill="#4285F4"/>
<path d="M1.90785 6.04937C1.91445 6.00437 1.91393 5.95839 1.9233 5.91347C1.9377 5.84462 1.96448 5.78102 1.98503 5.71457C2.00495 5.63854 2.02893 5.56363 2.05688 5.49017C2.07188 5.45454 2.09498 5.42327 2.11208 5.38862C2.15871 5.2886 2.21271 5.19219 2.27363 5.10017C2.30363 5.05659 2.34113 5.01947 2.37428 4.97822C2.43114 4.90325 2.49261 4.83189 2.55833 4.76454C2.6082 4.71602 2.66505 4.67544 2.71935 4.63172C2.77696 4.58229 2.83704 4.5358 2.89935 4.49244C2.95883 4.45359 3.02393 4.42367 3.08685 4.39052C3.15188 4.35374 3.21871 4.32024 3.2871 4.29017C3.35385 4.26332 3.42495 4.24622 3.49455 4.22574C3.56415 4.20527 3.63353 4.18074 3.70508 4.16747C3.79372 4.15323 3.88313 4.14422 3.97283 4.14047C4.02983 4.13649 4.08615 4.12652 4.1433 4.12697C4.2494 4.13006 4.35514 4.14071 4.45973 4.15884C4.50195 4.16514 4.54448 4.16462 4.58648 4.17332C4.65907 4.19182 4.73067 4.21405 4.80098 4.23992C4.87168 4.25871 4.94139 4.28104 5.00985 4.30682C5.0484 4.32332 5.08223 4.34784 5.11973 4.36644C5.21695 4.41212 5.31074 4.46475 5.40038 4.52394C5.70085 4.73026 5.9466 5.00661 6.11639 5.32914C6.28618 5.65167 6.37491 6.01068 6.37493 6.37517V10.6967L2.83493 8.21859C2.48736 7.98522 2.21484 7.65616 2.05031 7.2712C1.88579 6.88624 1.83631 6.46186 1.90785 6.04937Z" fill="#C52528"/>
</svg>
