<svg width="30" height="31" viewBox="0 0 30 31" fill="none" xmlns="http://www.w3.org/2000/svg">
<path d="M21.0249 3H8.9749C6.3124 3 4.1499 5.175 4.1499 7.825V25.4375C4.1499 27.6875 5.7624 28.6375 7.7374 27.55L13.8374 24.1625C14.4874 23.8 15.5374 23.8 16.1749 24.1625L22.2749 27.55C24.2499 28.65 25.8624 27.7 25.8624 25.4375V7.825C25.8499 5.175 23.6874 3 21.0249 3ZM18.7624 12.6875C17.5499 13.125 16.2749 13.35 14.9999 13.35C13.7249 13.35 12.4499 13.125 11.2374 12.6875C10.7499 12.5125 10.4999 11.975 10.6749 11.4875C10.8624 11 11.3999 10.75 11.8874 10.925C13.8999 11.65 16.1124 11.65 18.1249 10.925C18.6124 10.75 19.1499 11 19.3249 11.4875C19.4999 11.975 19.2499 12.5125 18.7624 12.6875Z" fill="#FFBE55"/>
</svg>
