<svg width="82" height="82" viewBox="0 0 82 82" fill="none" xmlns="http://www.w3.org/2000/svg">
<circle cx="41" cy="41" r="40.5" stroke="#F7F7F7"/>
<path fill-rule="evenodd" clip-rule="evenodd" d="M43.3912 39.4922H38.43L37.8098 45.3837H44.0114L43.3912 39.4922Z" fill="#DBBD76"/>
<path d="M47.8873 37.3217C49.0005 37.3217 49.9028 35.7946 49.9028 33.9109C49.9028 32.0271 49.0005 30.5 47.8873 30.5C46.7742 30.5 45.8718 32.0271 45.8718 33.9109C45.8718 35.7946 46.7742 37.3217 47.8873 37.3217Z" fill="#808080"/>
<path fill-rule="evenodd" clip-rule="evenodd" d="M55.5486 50.9555C54.6971 47.674 51.7356 45.3828 48.3455 45.3828C43.9371 45.3828 37.8841 45.3828 33.476 45.3828C30.086 45.3828 27.1241 47.674 26.2726 50.9555C25.5517 53.7332 24.7346 56.8827 24.2593 58.7149C24.1629 59.0864 24.2438 59.4817 24.4788 59.7853C24.7136 60.0889 25.0757 60.2665 25.4596 60.2665C31.1914 60.2665 50.6301 60.2665 56.3616 60.2665C56.7455 60.2665 57.108 60.0889 57.3427 59.7853C57.5777 59.4817 57.6587 59.0864 57.5622 58.7149C57.0869 56.8827 56.2695 53.7332 55.5486 50.9555Z" fill="#D5D5D5"/>
<path fill-rule="evenodd" clip-rule="evenodd" d="M40.9107 26.3789C45.6257 26.3789 47.0977 29.6642 47.0977 33.7104C47.0977 37.7569 44.3252 41.6623 40.9107 41.6623C37.4958 41.6623 34.7234 37.7569 34.7234 33.7104C34.7234 29.6642 36.1956 26.3789 40.9107 26.3789Z" fill="#F9D786"/>
<path fill-rule="evenodd" clip-rule="evenodd" d="M41.8408 45.3828H39.9804C39.9804 45.3828 38.5955 54.3834 38.2154 56.8548C38.1552 57.2451 38.2849 57.6411 38.5642 57.9205C38.9583 58.3143 39.5453 58.9013 40.0334 59.3896C40.2662 59.6222 40.5816 59.7527 40.9106 59.7527C41.2396 59.7527 41.5549 59.6222 41.7875 59.3896C42.2759 58.9013 42.8628 58.3143 43.2569 57.9205C43.5363 57.6411 43.6656 57.2451 43.6058 56.8548C43.2253 54.3834 41.8408 45.3828 41.8408 45.3828Z" fill="#F20D0D"/>
<path fill-rule="evenodd" clip-rule="evenodd" d="M47.1123 45.3828H34.7092C34.7092 45.3828 35.6953 46.8622 36.4243 47.9552C36.6193 48.2482 36.9297 48.4442 37.2782 48.4947C37.6264 48.5453 37.9799 48.4454 38.2503 48.2203C39.3502 47.3037 40.9108 46.003 40.9108 46.003C40.9108 46.003 42.4714 47.3037 43.5712 48.2203C43.8416 48.4454 44.1951 48.5453 44.5433 48.4947C44.8916 48.4442 45.2019 48.2482 45.3973 47.9552C46.126 46.8622 47.1123 45.3828 47.1123 45.3828Z" fill="#F3F3F3"/>
<path fill-rule="evenodd" clip-rule="evenodd" d="M34.738 34.0498C34.2049 32.8805 33.7789 30.6805 33.7789 29.2591C33.7789 28.4672 33.1587 25.2818 35.4843 23.6777C36.4139 23.0368 38.6477 21.7785 40.9107 21.8173C43.7014 21.865 45.8728 22.7993 47.0614 23.9878C48.5076 25.434 48.0425 27.1497 48.0425 28.9491C48.0425 30.3705 47.6161 32.8805 47.0834 34.0498L47.0976 33.7109C47.0976 32.9146 44.968 30.8784 45.2518 30.1894C46.337 27.5537 43.6533 27.0886 40.9107 27.0886C38.4161 27.0886 35.7944 26.9336 36.4145 30.4995C36.5854 31.483 34.7234 32.6204 34.7234 33.7109L34.738 34.0498Z" fill="#404040"/>
<path fill-rule="evenodd" clip-rule="evenodd" d="M34.7234 34.67H36.5569C36.8992 34.67 37.1771 34.3919 37.1771 34.0498C37.1771 33.7075 36.8992 33.4297 36.5569 33.4297H34.7234C34.3811 33.4297 34.1033 33.7075 34.1033 34.0498C34.1033 34.3919 34.3811 34.67 34.7234 34.67ZM39.974 34.67H41.8075C42.1498 34.67 42.4276 34.3919 42.4276 34.0498C42.4276 33.7075 42.1498 33.4297 41.8075 33.4297H39.974C39.6316 33.4297 39.3538 33.7075 39.3538 34.0498C39.3538 34.3919 39.6316 34.67 39.974 34.67ZM45.2242 34.67H47.058C47.4 34.67 47.6782 34.3919 47.6782 34.0498C47.6782 33.7075 47.4 33.4297 47.058 33.4297H45.2242C44.8822 33.4297 44.604 33.7075 44.604 34.0498C44.604 34.3919 44.8822 34.67 45.2242 34.67Z" fill="#0D79F2"/>
<path fill-rule="evenodd" clip-rule="evenodd" d="M38.4301 31.7402C37.2319 31.7402 36.2595 32.7129 36.2595 33.9108C36.2595 35.1089 37.2319 36.0813 38.4301 36.0813C39.6279 36.0813 40.6006 35.1089 40.6006 33.9108C40.6006 32.7129 39.6279 31.7402 38.4301 31.7402ZM38.4301 32.9805C38.9436 32.9805 39.3603 33.3976 39.3603 33.9108C39.3603 34.4243 38.9436 34.841 38.4301 34.841C37.9166 34.841 37.4998 34.4243 37.4998 33.9108C37.4998 33.3976 37.9166 32.9805 38.4301 32.9805ZM43.3913 31.7402C42.1932 31.7402 41.2208 32.7129 41.2208 33.9108C41.2208 35.1089 42.1932 36.0813 43.3913 36.0813C44.5891 36.0813 45.5618 35.1089 45.5618 33.9108C45.5618 32.7129 44.5891 31.7402 43.3913 31.7402ZM43.3913 32.9805C43.9048 32.9805 44.3215 33.3976 44.3215 33.9108C44.3215 34.4243 43.9048 34.841 43.3913 34.841C42.8778 34.841 42.4611 34.4243 42.4611 33.9108C42.4611 33.3976 42.8778 32.9805 43.3913 32.9805Z" fill="#0D79F2"/>
<path fill-rule="evenodd" clip-rule="evenodd" d="M48.5069 37.1387L48.5075 37.3204C48.5075 38.8618 47.2579 40.1111 45.7168 40.1111C44.0926 40.1111 42.1509 40.1111 42.1509 40.1111C41.8086 40.1111 41.5308 39.8332 41.5308 39.4909C41.5308 39.1486 41.8086 38.8708 42.1509 38.8708C42.1509 38.8708 44.0926 38.8708 45.7168 38.8708C46.5729 38.8708 47.2672 38.1768 47.2672 37.3204L47.2939 37.1526C47.4765 37.2664 47.678 37.3204 47.8874 37.3204C48.106 37.3204 48.3168 37.2615 48.5069 37.1387Z" fill="#A0A0A0"/>
<path fill-rule="evenodd" clip-rule="evenodd" d="M51.8657 52.3692C51.9129 52.0148 51.805 51.6572 51.5693 51.3881C51.334 51.1193 50.9938 50.9648 50.6363 50.9648C46.6214 50.9648 35.2 50.9648 31.1851 50.9648C30.8276 50.9648 30.4875 51.1193 30.2518 51.3881C30.0164 51.6572 29.9085 52.0148 29.9557 52.3692C30.205 54.2386 30.6403 57.5041 30.8651 59.1909C30.9473 59.807 31.4729 60.2672 32.0946 60.2672H49.7265C50.3482 60.2672 50.8738 59.807 50.956 59.1909C51.1811 57.5041 51.6164 54.2386 51.8657 52.3692Z" fill="#404040"/>
<path d="M40.9107 56.8556C41.5957 56.8556 42.151 56.3003 42.151 55.6153C42.151 54.9303 41.5957 54.375 40.9107 54.375C40.2257 54.375 39.6704 54.9303 39.6704 55.6153C39.6704 56.3003 40.2257 56.8556 40.9107 56.8556Z" fill="white"/>
</svg>
