<svg width="30" height="31" viewBox="0 0 30 31" fill="none" xmlns="http://www.w3.org/2000/svg">
<path opacity="0.4" d="M19.6501 3H10.3501C9.8751 3 9.4751 3.4 9.4751 3.875C9.4751 4.35 9.8751 4.75 10.3501 4.75H14.4251L16.1751 7.075C16.5626 7.5875 16.6126 7.6625 17.3376 7.6625H21.9876C22.4626 7.6625 22.9251 7.725 23.3751 7.85C23.4251 8.075 23.4501 8.3 23.4501 8.5375V8.975C23.4501 9.45 23.8501 9.85 24.3251 9.85C24.8001 9.85 25.2001 9.45 25.2001 8.975V8.525C25.1751 5.475 22.7001 3 19.6501 3Z" fill="white"/>
<path d="M25.175 8.675C24.6375 8.2875 24.025 8 23.3625 7.8375C22.925 7.7125 22.45 7.65 21.975 7.65H17.325C16.6 7.65 16.55 7.575 16.1625 7.0625L14.4125 4.7375C13.6 3.6625 12.9625 3 10.925 3H8.025C4.975 3 2.5 5.475 2.5 8.525V22.475C2.5 25.525 4.975 28 8.025 28H21.975C25.025 28 27.5 25.525 27.5 22.475V13.175C27.5 11.3125 26.5875 9.675 25.175 8.675ZM17.9125 20.5H12.0875C11.6 20.5 11.2125 20.1125 11.2125 19.625C11.2125 19.15 11.6 18.75 12.0875 18.75H17.9C18.375 18.75 18.775 19.15 18.775 19.625C18.775 20.1125 18.3875 20.5 17.9125 20.5Z" fill="white"/>
</svg>
