<svg width="30" height="30" viewBox="0 0 30 30" fill="none" xmlns="http://www.w3.org/2000/svg">
<circle cx="15" cy="15" r="14.5" fill="white" stroke="#CCCCCC"/>
<path d="M15.0002 13.8743C14.7952 13.8743 14.6252 13.7043 14.6252 13.4993V10.9043L14.2652 11.2643C14.1202 11.4093 13.8802 11.4093 13.7352 11.2643C13.5902 11.1193 13.5902 10.8793 13.7352 10.7343L14.7352 9.73426C14.8402 9.62926 15.0052 9.59426 15.1452 9.65426C15.2852 9.70926 15.3752 9.84926 15.3752 9.99926V13.4993C15.3752 13.7043 15.2052 13.8743 15.0002 13.8743Z" fill="#ADADAD"/>
<path d="M16.0002 11.3757C15.9052 11.3757 15.8102 11.3407 15.7352 11.2657L14.7352 10.2657C14.5902 10.1207 14.5902 9.8807 14.7352 9.7357C14.8802 9.5907 15.1202 9.5907 15.2652 9.7357L16.2652 10.7357C16.4102 10.8807 16.4102 11.1207 16.2652 11.2657C16.1902 11.3407 16.0952 11.3757 16.0002 11.3757Z" fill="#ADADAD"/>
<path d="M15.8802 17.875H14.1152C13.5902 17.875 13.1202 17.585 12.8852 17.115L12.3002 15.945C12.2802 15.9 12.2352 15.875 12.1902 15.875H9.99023C9.78523 15.875 9.61523 15.705 9.61523 15.5C9.61523 15.295 9.78523 15.125 9.99023 15.125H12.1952C12.5302 15.125 12.8302 15.31 12.9802 15.61L13.5652 16.78C13.6702 16.995 13.8852 17.125 14.1252 17.125H15.8902C16.1302 17.125 16.3452 16.995 16.4502 16.78L17.0352 15.61C17.1852 15.31 17.4852 15.125 17.8202 15.125H20.0002C20.2052 15.125 20.3752 15.295 20.3752 15.5C20.3752 15.705 20.2052 15.875 20.0002 15.875H17.8202C17.7702 15.875 17.7302 15.9 17.7102 15.945L17.1252 17.115C16.8752 17.585 16.4052 17.875 15.8802 17.875Z" fill="#ADADAD"/>
<path d="M16.5 20.3755H13.5C10.785 20.3755 9.625 19.2155 9.625 16.5005V15.0005C9.625 12.6555 10.495 11.4805 12.445 11.1955C12.655 11.1655 12.84 11.3055 12.87 11.5105C12.9 11.7155 12.76 11.9055 12.555 11.9355C10.985 12.1655 10.375 13.0255 10.375 15.0005V16.5005C10.375 18.8055 11.195 19.6255 13.5 19.6255H16.5C18.805 19.6255 19.625 18.8055 19.625 16.5005V15.0005C19.625 13.0255 19.015 12.1655 17.445 11.9355C17.24 11.9055 17.1 11.7155 17.13 11.5105C17.16 11.3055 17.35 11.1655 17.555 11.1955C19.505 11.4805 20.375 12.6555 20.375 15.0005V16.5005C20.375 19.2155 19.215 20.3755 16.5 20.3755Z" fill="#ADADAD"/>
</svg>
