<svg width="30" height="30" viewBox="0 0 30 30" fill="none" xmlns="http://www.w3.org/2000/svg">
<g clip-path="url(#clip0_2101_789)">
<path d="M15 10.17C11.85 10.17 9.30001 12.72 9.30001 15.87C9.30001 19.02 11.85 21.57 15 21.57C18.15 21.57 20.7 19.02 20.7 15.87C20.7 12.75 18.15 10.17 15 10.17ZM15 20.37C12.51 20.37 10.5 18.36 10.5 15.87C10.5 13.38 12.51 11.37 15 11.37C17.49 11.37 19.5 13.38 19.5 15.87C19.5 18.36 17.49 20.37 15 20.37ZM24.9 8.97L20.4 9L18.51 6.24C18.39 6.09 18.21 6 18.03 6H11.97C11.79 6 11.61 6.09 11.49 6.24L9.60001 9H5.10001C3.78001 9 2.70001 10.05 2.70001 11.37V21.6C2.70001 22.92 3.78001 24 5.10001 24H24.9C26.22 24 27.3 22.92 27.3 21.6V11.1C27.3 9.78 26.22 8.97 24.9 8.97ZM26.1 21.6C26.1 22.26 25.56 22.8 24.9 22.8H5.10001C4.44001 22.8 3.90001 22.26 3.90001 21.6V11.37C3.90001 10.71 4.44001 10.2 5.10001 10.2H9.90001C10.08 10.2 10.26 10.11 10.38 9.96L12.27 7.2H17.73L19.62 9.96C19.74 10.11 19.92 10.2 20.1 10.2L24.9 10.17C25.56 10.17 26.1 10.44 26.1 11.1V21.6Z" fill="white"/>
<path d="M409.2 -195V310.2H-126V-195H409.2ZM411.6 -197.4H-128.4V312.6H411.6V-197.4Z" fill="#0000FF"/>
</g>
<defs>
<clipPath id="clip0_2101_789">
<rect width="30" height="30" fill="white"/>
</clipPath>
</defs>
</svg>
