<svg width="30" height="30" viewBox="0 0 30 30" fill="none" xmlns="http://www.w3.org/2000/svg">
<circle cx="15" cy="15" r="14.5" fill="white" stroke="#F44336"/>
<path d="M16.6198 20.1352H16.5548C14.3348 20.1352 13.2648 19.2602 13.0798 17.3002C13.0598 17.0952 13.2098 16.9102 13.4198 16.8902C13.6198 16.8702 13.8098 17.0252 13.8298 17.2302C13.9748 18.8002 14.7148 19.3852 16.5598 19.3852H16.6248C18.6598 19.3852 19.3798 18.6652 19.3798 16.6302V13.3702C19.3798 11.3352 18.6598 10.6152 16.6248 10.6152H16.5598C14.7048 10.6152 13.9648 11.2102 13.8298 12.8102C13.8048 13.0152 13.6298 13.1702 13.4198 13.1502C13.2098 13.1352 13.0598 12.9502 13.0748 12.7452C13.2448 10.7552 14.3198 9.86523 16.5548 9.86523H16.6198C19.0748 9.86523 20.1248 10.9152 20.1248 13.3702V16.6302C20.1248 19.0852 19.0748 20.1352 16.6198 20.1352Z" fill="#F44336"/>
<path d="M16.5001 15.375H10.8101C10.6051 15.375 10.4351 15.205 10.4351 15C10.4351 14.795 10.6051 14.625 10.8101 14.625H16.5001C16.7051 14.625 16.8751 14.795 16.8751 15C16.8751 15.205 16.7051 15.375 16.5001 15.375Z" fill="#F44336"/>
<path d="M11.9252 17.0499C11.8302 17.0499 11.7352 17.0149 11.6602 16.9399L9.98521 15.2649C9.84021 15.1199 9.84021 14.8799 9.98521 14.7349L11.6602 13.0599C11.8052 12.9149 12.0452 12.9149 12.1902 13.0599C12.3352 13.2049 12.3352 13.4449 12.1902 13.5899L10.7802 14.9999L12.1902 16.4099C12.3352 16.5549 12.3352 16.7949 12.1902 16.9399C12.1202 17.0149 12.0202 17.0499 11.9252 17.0499Z" fill="#F44336"/>
</svg>
