<svg width="425" height="251" viewBox="0 0 425 251" fill="none" xmlns="http://www.w3.org/2000/svg">
<g clip-path="url(#clip0_1695_895)">
<path d="M362.621 159.221C363.005 159.123 363.364 158.938 363.671 158.679C363.979 158.421 364.229 158.095 364.403 157.725C364.577 157.356 364.671 156.951 364.679 156.539C364.686 156.127 364.607 155.719 364.446 155.342L371.465 148.504L366.609 147.288L360.688 153.968C360.099 154.291 359.644 154.828 359.409 155.477C359.175 156.126 359.177 156.842 359.415 157.489C359.653 158.136 360.111 158.67 360.702 158.99C361.293 159.309 361.976 159.391 362.621 159.221Z" fill="#FFB6B6"/>
<path d="M366.247 153.713L362.974 148.905L375.269 135.657L378.124 114.776C378.266 113.744 378.623 112.757 379.172 111.885C379.72 111.013 380.446 110.277 381.299 109.73C382.151 109.183 383.108 108.839 384.102 108.721C385.097 108.602 386.104 108.714 387.053 109.047C388.765 109.65 390.178 110.937 390.981 112.624C391.784 114.311 391.912 116.261 391.336 118.046L384.052 140.559L366.247 153.713Z" fill="#E4E4E4"/>
<path d="M389.334 242.687H385.7L383.971 228.086L389.335 228.086L389.334 242.687Z" fill="#FFB6B6"/>
<path d="M391.289 249.875H388.71L388.25 247.339L387.071 249.875H380.232C379.904 249.875 379.585 249.766 379.321 249.564C379.057 249.361 378.862 249.076 378.764 248.75C378.667 248.424 378.672 248.074 378.779 247.751C378.886 247.429 379.089 247.15 379.359 246.956L384.82 243.027V240.463L390.565 240.82L391.289 249.875Z" fill="#2F2E41"/>
<path d="M411.753 238.835L408.561 240.645L400.343 228.68L405.054 226.01L411.753 238.835Z" fill="#FFB6B6"/>
<path d="M416.768 244.175L414.503 245.459L412.935 243.461L413.064 246.275L407.056 249.68C406.768 249.843 406.438 249.906 406.113 249.86C405.788 249.814 405.486 249.661 405.251 249.423C405.016 249.185 404.86 248.875 404.805 248.538C404.751 248.202 404.802 247.856 404.95 247.551L407.944 241.38L406.768 239.128L411.977 236.582L416.768 244.175Z" fill="#2F2E41"/>
<path d="M390.865 237.488H383.355V209.63L378.706 191.469C375.369 178.481 374.482 164.942 376.094 151.602L376.101 151.548L376.141 151.513C376.261 151.408 388.16 141.159 395.687 148.999C400.76 154.284 395.993 173.288 395.726 174.331V207.091L390.865 237.488Z" fill="#2F2E41"/>
<path d="M390.847 106.137L390.807 106.096L381.231 106.247L376.119 118.747C371.386 126.404 375.912 130.759 376.229 131.449L375.324 140.844L374.742 146.905L373.806 156.664L395.752 149.196L393.31 139.009L396.131 124.316C396.758 121.067 396.603 117.707 395.681 114.535C394.759 111.363 393.098 108.478 390.847 106.137Z" fill="#E4E4E4"/>
<path d="M386.385 209.774L401.813 232.379L407.731 227.996L394.846 200.414L386.385 209.774Z" fill="#2F2E41"/>
<path d="M385.124 103.707C390.007 103.707 393.965 99.5846 393.965 94.4988C393.965 89.4129 390.007 85.29 385.124 85.29C380.242 85.29 376.284 89.4129 376.284 94.4988C376.284 99.5846 380.242 103.707 385.124 103.707Z" fill="#FFB6B6"/>
<path opacity="0.1" d="M393.65 130.124L384.008 141.713L374.742 146.905L375.324 140.844L380.781 137.652L393.65 130.124Z" fill="black"/>
<path d="M378.933 111.757L378.103 107.971C377.831 106.704 377.804 105.393 378.026 104.115C378.247 102.837 378.712 101.618 379.392 100.53C380.018 99.5046 380.366 98.3224 380.401 97.108C380.436 95.8935 380.157 94.6917 379.592 93.6287C379.175 92.7693 378.542 92.0443 377.76 91.5311C376.978 91.018 376.076 90.7361 375.152 90.7156H374.932V90.4856C374.932 87.1836 377.402 84.853 379.699 84.7194C379.782 84.0323 380.249 83.4163 381.064 82.9273C383.008 81.7594 386.768 81.5061 389.609 83.0627C389.662 82.5594 389.844 82.0803 390.137 81.6761C390.429 81.272 390.822 80.9579 391.272 80.7671C391.738 80.598 392.241 80.5679 392.724 80.6802C392.765 79.8523 393.093 79.0683 393.647 78.4733C394.431 77.6815 395.69 77.3806 397.1 77.6461C399.036 78.0121 400.944 79.2969 402.474 81.2644C403.829 83.0088 404.77 85.0645 405.681 87.0525C406.576 89.0076 407.501 91.0293 408.843 92.741C410.313 94.6162 412.134 95.8313 413.971 96.1622C416.113 96.5485 418.312 95.6296 419.318 93.9284L419.518 93.5907L419.7 93.9392C420.83 96.103 420.368 99.0762 418.6 101.009C417.015 102.742 414.527 103.625 411.947 103.369C409.763 103.152 407.56 102.185 405.4 100.495C403.254 98.8165 401.926 96.9608 401.455 94.9796C401.323 94.3665 401.228 93.7455 401.172 93.1201C401.025 91.81 400.888 90.5725 400.114 89.6618C399.419 88.8428 398.342 88.488 397.388 88.2199L397.201 88.1676C397.167 88.5366 397.056 88.8933 396.876 89.213C396.696 89.5327 396.451 89.8076 396.158 90.0186C395.982 90.1287 395.79 90.206 395.588 90.2472C396.695 94.8853 396.24 98.4363 394.235 100.804C390.852 104.801 384.35 103.978 384.074 103.942L383.891 103.917L383.882 103.725C383.857 103.21 383.797 102.697 383.701 102.191C382.77 104.528 379.637 110.709 379.218 111.332L378.933 111.757Z" fill="#2F2E41"/>
<path d="M66.7436 126.626C66.4851 126.98 66.1552 127.271 65.7772 127.478C65.3991 127.685 64.9821 127.803 64.5554 127.824C64.1288 127.845 63.7029 127.768 63.3078 127.599C62.9128 127.43 62.5581 127.173 62.2687 126.845L52.748 131.159L53.6754 125.622L62.5743 122.375C63.1343 121.905 63.8403 121.666 64.5586 121.702C65.2768 121.738 65.9574 122.047 66.4713 122.571C66.9853 123.095 67.2968 123.797 67.347 124.545C67.3972 125.292 67.1825 126.032 66.7436 126.626V126.626Z" fill="#A0616A"/>
<path d="M60.3902 128.354L38.2768 138.615L38.2294 138.597L13.0257 129.242C11.1484 128.22 9.71713 126.489 9.02499 124.403C8.33286 122.318 8.43221 120.036 9.3027 118.024C9.78522 116.913 10.4882 115.92 11.3655 115.112C12.2427 114.304 13.2743 113.699 14.3923 113.336C15.5103 112.973 16.6894 112.861 17.8519 113.008C19.0145 113.154 20.1342 113.555 21.1373 114.184L39.8935 125.953L58.0811 123.498L60.3902 128.354Z" fill="#3F3D56"/>
<path d="M69.6547 60.7971C61.295 41.5353 61.6032 17.1201 74.5772 0.866211C78.9177 23.4049 90.7716 43.6179 108.042 57.9289C114.721 63.4229 122.699 68.809 124.524 77.4684C125.66 82.8565 124.05 88.5555 121.268 93.2489C118.485 97.9425 114.607 101.803 110.773 105.608L110.342 106.91C93.6582 94.8775 78.0144 80.0589 69.6547 60.7971Z" fill="#232F58"/>
<path d="M74.9381 1.10094C71.9523 18.1321 74.1704 36.2671 81.4277 51.8708C82.9967 55.2443 84.8702 58.5242 87.3786 61.2374C89.843 63.8625 92.9374 65.7523 96.3401 66.7103C99.4955 67.67 102.83 68.2711 105.706 70.0131C108.738 71.8492 110.62 74.9302 111.353 78.4633C112.25 82.7862 111.602 87.187 110.825 91.4677C109.963 96.2205 108.994 101.143 110.244 105.921C110.396 106.5 109.525 106.711 109.373 106.133C107.198 97.8201 111.427 89.6215 110.836 81.264C110.56 77.3642 109.155 73.5274 105.945 71.2679C103.138 69.2921 99.6997 68.6692 96.4966 67.7263C93.1334 66.7362 90.113 65.2238 87.5428 62.715C84.9137 60.1487 82.9132 56.9382 81.2682 53.6213C77.592 46.0709 75.0782 37.9652 73.8192 29.6014C72.3313 20.064 72.4207 10.3319 74.0834 0.825968C74.1865 0.237659 75.0405 0.51647 74.9381 1.10094Z" fill="white"/>
<path d="M78.8119 46.9282C76.1036 47.8323 73.175 47.7042 70.549 46.5667C67.923 45.4292 65.7707 43.3564 64.4764 40.7184C64.2163 40.1837 65.0017 39.7376 65.2622 40.273C66.4631 42.7317 68.4681 44.6624 70.9155 45.7164C73.3629 46.7704 76.0914 46.8784 78.6085 46.0209C79.1557 45.8352 79.356 46.7436 78.8119 46.9282L78.8119 46.9282Z" fill="white"/>
<path d="M94.6787 66.4436C97.385 61.0837 98.0525 54.8583 96.5481 49.0085C96.3986 48.4291 97.2697 48.2179 97.419 48.7967C98.9736 54.8871 98.2663 61.3642 95.4384 66.9353C95.1685 67.4661 94.4103 66.9715 94.6787 66.4436Z" fill="white"/>
<path d="M73.4813 20.3666C74.5992 20.2442 75.6704 19.8346 76.5987 19.1744C77.527 18.5142 78.2834 17.6241 78.7999 16.5842C79.0632 16.05 79.8211 16.5452 79.5595 17.0759C78.9838 18.2221 78.1473 19.204 77.1232 19.9358C76.0991 20.6676 74.9185 21.127 73.6847 21.2739C73.5695 21.2979 73.4498 21.2753 73.3501 21.2107C73.2503 21.1461 73.1779 21.0444 73.1475 20.9262C73.1212 20.8059 73.1414 20.6797 73.2039 20.5749C73.2664 20.4701 73.3661 20.3953 73.4813 20.3666Z" fill="white"/>
<path d="M143.285 1.05469C143.13 1.39307 142.974 1.73145 142.823 2.07675C140.757 6.63732 139.051 11.3651 137.721 16.2136C137.612 16.5867 137.507 16.9666 137.409 17.3422C134.324 29.0587 133.353 41.2702 134.547 53.3558C135.026 58.1644 135.856 62.9282 137.029 67.6057C138.65 74.0655 140.9 80.9352 140.392 87.3855C140.347 88.0591 140.261 88.729 140.136 89.3916L111.901 107.356C111.817 107.363 111.737 107.377 111.653 107.385L110.557 108.156C110.48 107.919 110.406 107.672 110.329 107.435C110.284 107.298 110.245 107.156 110.2 107.019C110.172 106.927 110.144 106.834 110.114 106.752C110.105 106.721 110.095 106.69 110.09 106.666C110.06 106.584 110.04 106.504 110.013 106.429C109.592 105.047 109.18 103.66 108.776 102.268C108.772 102.261 108.772 102.261 108.775 102.251C105.725 91.6327 103.499 80.6564 102.943 69.6771C102.926 69.3468 102.905 69.01 102.902 68.6714C102.677 63.721 102.842 58.7598 103.394 53.8373C103.704 51.143 104.145 48.4667 104.716 45.8188C106.202 38.9799 108.711 32.4272 112.152 26.4006C119.013 14.3879 129.486 4.79459 142.303 1.31087C142.631 1.22195 142.953 1.13683 143.285 1.05469Z" fill="#232F58"/>
<path d="M143.44 1.46785C131.212 13.1937 122.502 29.0646 119.278 46.0748C118.581 49.7524 118.181 53.5462 118.615 57.2857C119.066 60.9273 120.444 64.3768 122.608 67.2758C124.572 70.0211 126.887 72.5922 128.177 75.7871C129.537 79.1548 129.258 82.7949 127.802 86.0756C126.019 90.0897 122.958 93.1972 119.864 96.1278C116.428 99.3816 112.81 102.705 111.046 107.304C110.833 107.861 110.015 107.483 110.229 106.926C113.296 98.9251 121.412 95.0312 125.77 87.9875C127.804 84.7008 128.899 80.7557 127.642 76.9384C126.543 73.6004 124.158 70.9469 122.145 68.1852C120.032 65.2853 118.495 62.1835 117.893 58.5685C117.277 54.8705 117.535 51.0525 118.139 47.3725C119.567 39.0382 122.245 30.9898 126.074 23.5221C130.398 14.974 136.095 7.25946 142.917 0.712268C143.339 0.30722 143.86 1.06545 143.44 1.46784V1.46785Z" fill="white"/>
<path d="M120.046 40.4882C117.361 39.5115 115.097 37.5725 113.657 35.0174C112.218 32.4622 111.698 29.4573 112.189 26.5393C112.29 25.9493 113.175 26.0856 113.074 26.6765C112.612 29.3928 113.097 32.1918 114.442 34.5683C115.787 36.9448 117.903 38.7423 120.408 39.6362C120.952 39.8312 120.587 40.682 120.046 40.4882H120.046Z" fill="white"/>
<path d="M121.435 66.0209C126.694 63.4386 130.825 58.8866 133.005 53.2724C133.221 52.716 134.038 53.0937 133.823 53.6495C131.544 59.4873 127.236 64.2153 121.758 66.8899C121.235 67.1445 120.916 66.2741 121.435 66.0209Z" fill="white"/>
<path d="M131.142 15.9375C132.105 16.5409 133.197 16.8856 134.32 16.9407C135.443 16.9958 136.561 16.7595 137.575 16.2531C138.093 15.9917 138.412 16.8625 137.897 17.1221C136.775 17.6762 135.539 17.9356 134.299 17.8776C133.058 17.8196 131.85 17.446 130.78 16.7895C130.674 16.7364 130.591 16.6434 130.549 16.5292C130.507 16.4151 130.508 16.2884 130.552 16.175C130.6 16.0624 130.689 15.9744 130.8 15.9299C130.91 15.8854 131.033 15.8882 131.142 15.9375Z" fill="white"/>
<path d="M251.544 70.9143C243.184 51.6525 243.492 27.2373 256.466 10.9834C260.807 33.5221 272.661 53.7351 289.931 68.0461C296.61 73.5401 304.589 78.9262 306.413 87.5856C307.549 92.9737 305.939 98.6727 303.157 103.366C300.375 108.06 296.496 111.921 292.662 115.726L292.232 117.028C275.547 104.995 259.904 90.1761 251.544 70.9143Z" fill="#232F58"/>
<path d="M256.827 11.2181C253.841 28.2493 256.06 46.3843 263.317 61.988C264.886 65.3615 266.759 68.6414 269.268 71.3546C271.732 73.9797 274.827 75.8695 278.229 76.8275C281.385 77.7872 284.719 78.3883 287.596 80.1303C290.628 81.9664 292.509 85.0474 293.242 88.5805C294.139 92.9034 293.491 97.3042 292.714 101.585C291.852 106.338 290.883 111.26 292.133 116.038C292.285 116.617 291.414 116.828 291.263 116.25C289.087 107.937 293.316 99.7387 292.725 91.3812C292.449 87.4814 291.044 83.6446 287.834 81.3851C285.027 79.4093 281.589 78.7864 278.386 77.8435C275.023 76.8534 272.002 75.341 269.432 72.8322C266.803 70.2659 264.802 67.0554 263.157 63.7385C259.481 56.188 256.967 48.0824 255.708 39.7185C254.22 30.1812 254.31 20.4491 255.973 10.9432C256.076 10.3548 256.93 10.6337 256.827 11.2181Z" fill="white"/>
<path d="M260.701 57.0454C257.993 57.9495 255.064 57.8214 252.438 56.6839C249.812 55.5464 247.66 53.4736 246.366 50.8356C246.105 50.3009 246.891 49.8547 247.151 50.3902C248.352 52.8489 250.357 54.7796 252.805 55.8336C255.252 56.8876 257.981 56.9956 260.498 56.1381C261.045 55.9524 261.245 56.8607 260.701 57.0454V57.0454Z" fill="white"/>
<path d="M276.568 76.5608C279.274 71.2009 279.942 64.9754 278.437 59.1257C278.288 58.5463 279.159 58.3351 279.308 58.9139C280.863 65.0043 280.156 71.4814 277.328 77.0525C277.058 77.5833 276.299 77.0887 276.568 76.5608Z" fill="white"/>
<path d="M255.37 30.4838C256.488 30.3614 257.56 29.9517 258.488 29.2915C259.416 28.6313 260.172 27.7413 260.689 26.7013C260.952 26.1672 261.71 26.6624 261.449 27.1931C260.873 28.3393 260.036 29.3212 259.012 30.053C257.988 30.7848 256.808 31.2442 255.574 31.3911C255.459 31.4151 255.339 31.3925 255.239 31.3279C255.139 31.2633 255.067 31.1616 255.037 31.0434C255.01 30.9231 255.031 30.7969 255.093 30.6921C255.156 30.5873 255.255 30.5125 255.37 30.4838Z" fill="white"/>
<path d="M325.174 11.1719C325.018 11.5103 324.863 11.8486 324.711 12.1939C322.646 16.7545 320.94 21.4823 319.609 26.3307C319.501 26.7039 319.396 27.0838 319.298 27.4594C316.212 39.1759 315.242 51.3873 316.436 63.4729C316.915 68.2816 317.745 73.0453 318.918 77.7229C320.538 84.1826 322.789 91.0524 322.281 97.5027C322.235 98.1762 322.15 98.8462 322.024 99.5088L293.79 117.473C293.706 117.48 293.626 117.495 293.541 117.502L292.446 118.273C292.369 118.036 292.294 117.789 292.218 117.552C292.173 117.415 292.134 117.274 292.089 117.136C292.061 117.044 292.033 116.951 292.003 116.869C291.993 116.838 291.984 116.807 291.979 116.783C291.948 116.701 291.928 116.621 291.902 116.546C291.481 115.164 291.069 113.778 290.665 112.385C290.661 112.378 290.661 112.378 290.663 112.368C287.613 101.75 285.387 90.7736 284.832 79.7943C284.815 79.464 284.794 79.1271 284.79 78.7886C284.566 73.8382 284.731 68.877 285.283 63.9545C285.593 61.2601 286.034 58.5839 286.604 55.936C288.09 49.0971 290.6 42.5443 294.041 36.5178C300.902 24.5051 311.374 14.9118 324.192 11.4281C324.52 11.3391 324.842 11.254 325.174 11.1719Z" fill="#232F58"/>
<path d="M325.329 11.586C313.102 23.3118 304.391 39.1828 301.167 56.193C300.47 59.8706 300.07 63.6644 300.505 67.4038C300.955 71.0455 302.334 74.495 304.497 77.394C306.461 80.1392 308.776 82.7103 310.066 85.9053C311.426 89.273 311.148 92.913 309.691 96.1938C307.908 100.208 304.848 103.315 301.753 106.246C298.317 109.5 294.699 112.823 292.936 117.422C292.722 117.979 291.904 117.601 292.118 117.045C295.186 109.043 303.301 105.149 307.659 98.1057C309.693 94.8189 310.788 90.8738 309.531 87.0566C308.432 83.7185 306.047 81.0651 304.034 78.3034C301.921 75.4035 300.384 72.3016 299.782 68.6866C299.166 64.9887 299.424 61.1706 300.028 57.4906C301.457 49.1564 304.134 41.108 307.963 33.6403C312.288 25.0922 317.984 17.3776 324.806 10.8304C325.228 10.4254 325.749 11.1836 325.329 11.586V11.586Z" fill="white"/>
<path d="M301.935 50.6063C299.25 49.6297 296.985 47.6907 295.546 45.1355C294.107 42.5804 293.586 39.5755 294.078 36.6575C294.179 36.0674 295.064 36.2038 294.963 36.7946C294.5 39.511 294.985 42.31 296.33 44.6865C297.675 47.063 299.791 48.8604 302.297 49.7544C302.841 49.9493 302.476 50.8002 301.935 50.6063Z" fill="white"/>
<path d="M303.325 76.1381C308.583 73.5558 312.714 69.0038 314.894 63.3896C315.11 62.8332 315.927 63.2109 315.712 63.7667C313.433 69.6045 309.125 74.3325 303.647 77.0071C303.125 77.2617 302.805 76.3913 303.325 76.1381Z" fill="white"/>
<path d="M313.03 26.0547C313.994 26.6581 315.086 27.0028 316.209 27.0579C317.331 27.113 318.45 26.8767 319.463 26.3703C319.982 26.1089 320.301 26.9797 319.786 27.2393C318.663 27.7934 317.428 28.0528 316.187 27.9948C314.947 27.9368 313.739 27.5632 312.668 26.9067C312.563 26.8536 312.48 26.7605 312.438 26.6464C312.395 26.5323 312.396 26.4056 312.441 26.2922C312.489 26.1796 312.578 26.0916 312.689 26.0471C312.799 26.0026 312.922 26.0054 313.03 26.0547Z" fill="white"/>
<path d="M82.4707 197.485H297.55V67.7769C297.549 66.8051 297.178 65.8733 296.518 65.1862C295.859 64.499 294.964 64.1124 294.031 64.1113H85.9897C85.0568 64.1124 84.1623 64.499 83.5026 65.1862C82.8429 65.8733 82.4718 66.8051 82.4707 67.7769V197.485Z" fill="#CACACA"/>
<path d="M290.905 69.1807H89.1157V188.515H290.905V69.1807Z" fill="white"/>
<path d="M82.2832 193.975V209.981C82.2832 210.644 82.4086 211.301 82.6524 211.914C82.8962 212.527 83.2535 213.084 83.7039 213.554C84.1543 214.023 84.689 214.395 85.2776 214.649C85.8661 214.903 86.4968 215.034 87.1338 215.034H166.518V246.622H165.463C165.381 246.622 165.299 246.639 165.222 246.672C165.146 246.705 165.076 246.753 165.018 246.814C164.959 246.875 164.913 246.948 164.881 247.027C164.85 247.107 164.833 247.192 164.833 247.278V249.476C164.833 249.562 164.85 249.647 164.881 249.727C164.913 249.806 164.959 249.879 165.018 249.94C165.076 250.001 165.146 250.049 165.222 250.082C165.299 250.115 165.381 250.132 165.463 250.132H214.744C214.827 250.132 214.909 250.115 214.985 250.082C215.062 250.049 215.131 250.001 215.19 249.94C215.248 249.879 215.295 249.806 215.326 249.727C215.358 249.647 215.374 249.562 215.374 249.476V247.278C215.374 247.192 215.358 247.107 215.326 247.027C215.295 246.948 215.248 246.875 215.19 246.814C215.131 246.753 215.062 246.705 214.985 246.672C214.909 246.639 214.827 246.622 214.744 246.622H213.69V215.034H293.074C293.711 215.034 294.342 214.903 294.93 214.649C295.519 214.395 296.053 214.023 296.504 213.554C296.954 213.084 297.311 212.527 297.555 211.914C297.799 211.301 297.924 210.644 297.924 209.981V193.975L82.2832 193.975Z" fill="#3F3D56"/>
<path d="M151.863 128.196H102.688C102.345 128.196 102.017 128.054 101.775 127.801C101.532 127.549 101.396 127.207 101.396 126.85V106.065C101.396 105.708 101.532 105.366 101.775 105.114C102.017 104.861 102.345 104.719 102.688 104.719H151.863C152.205 104.719 152.534 104.861 152.776 105.114C153.019 105.366 153.155 105.708 153.155 106.065V126.85C153.155 127.207 153.019 127.549 152.776 127.801C152.534 128.054 152.205 128.196 151.863 128.196Z" fill="#232F58"/>
<path d="M147.18 138.166H107.37C106.959 138.166 106.564 137.996 106.274 137.693C105.983 137.39 105.819 136.979 105.819 136.55C105.819 136.122 105.983 135.711 106.274 135.408C106.564 135.105 106.959 134.935 107.37 134.935H147.18C149.181 134.906 149.201 138.195 147.18 138.166Z" fill="#E4E4E4"/>
<path d="M147.18 145.571H107.37C106.959 145.571 106.565 145.401 106.274 145.098C105.983 144.795 105.819 144.384 105.819 143.956C105.819 143.527 105.983 143.116 106.274 142.813C106.565 142.51 106.959 142.34 107.37 142.34H147.18C149.181 142.311 149.201 145.601 147.18 145.571Z" fill="#E4E4E4"/>
<path d="M147.18 152.977H107.37C106.959 152.977 106.564 152.806 106.274 152.503C105.983 152.2 105.819 151.789 105.819 151.361C105.819 150.932 105.983 150.522 106.274 150.219C106.564 149.916 106.959 149.745 107.37 149.745H147.18C149.181 149.716 149.201 153.006 147.18 152.977Z" fill="#E4E4E4"/>
<path d="M214.598 128.196H165.423C165.08 128.196 164.752 128.054 164.509 127.801C164.267 127.549 164.131 127.207 164.13 126.85V106.065C164.131 105.708 164.267 105.366 164.509 105.114C164.752 104.861 165.08 104.719 165.423 104.719H214.598C214.94 104.719 215.269 104.861 215.511 105.114C215.753 105.366 215.89 105.708 215.89 106.065V126.85C215.89 127.207 215.753 127.549 215.511 127.801C215.269 128.054 214.94 128.196 214.598 128.196Z" fill="#232F58"/>
<path d="M209.915 138.166H170.105C169.694 138.166 169.299 137.996 169.008 137.693C168.718 137.39 168.554 136.979 168.554 136.55C168.554 136.122 168.718 135.711 169.008 135.408C169.299 135.105 169.694 134.935 170.105 134.935H209.915C211.915 134.906 211.935 138.195 209.915 138.166Z" fill="#E4E4E4"/>
<path d="M209.915 145.571H170.105C169.694 145.571 169.299 145.401 169.008 145.098C168.718 144.795 168.554 144.384 168.554 143.956C168.554 143.527 168.718 143.116 169.008 142.813C169.299 142.51 169.694 142.34 170.105 142.34H209.915C211.915 142.311 211.935 145.601 209.915 145.571Z" fill="#E4E4E4"/>
<path d="M209.915 152.977H170.105C169.694 152.977 169.299 152.806 169.008 152.503C168.718 152.2 168.554 151.789 168.554 151.361C168.554 150.932 168.718 150.522 169.008 150.219C169.299 149.916 169.694 149.745 170.105 149.745H209.915C211.915 149.716 211.935 153.006 209.915 152.977Z" fill="#E4E4E4"/>
<path d="M277.333 128.196H228.158C227.816 128.196 227.487 128.054 227.245 127.801C227.002 127.549 226.866 127.207 226.866 126.85V106.065C226.866 105.708 227.002 105.366 227.245 105.114C227.487 104.861 227.816 104.719 228.158 104.719H277.333C277.676 104.719 278.004 104.861 278.246 105.114C278.489 105.366 278.625 105.708 278.625 106.065V126.85C278.625 127.207 278.489 127.549 278.246 127.801C278.004 128.054 277.676 128.196 277.333 128.196Z" fill="#232F58"/>
<path d="M272.651 138.166H232.841C232.429 138.166 232.035 137.996 231.744 137.693C231.453 137.39 231.29 136.979 231.29 136.55C231.29 136.122 231.453 135.711 231.744 135.408C232.035 135.105 232.429 134.935 232.841 134.935H272.651C274.651 134.906 274.671 138.195 272.651 138.166Z" fill="#E4E4E4"/>
<path d="M272.651 145.571H232.841C232.43 145.571 232.036 145.4 231.746 145.097C231.456 144.794 231.292 144.384 231.292 143.956C231.292 143.528 231.456 143.117 231.746 142.814C232.036 142.511 232.43 142.341 232.841 142.34H272.651C274.651 142.311 274.671 145.601 272.651 145.571Z" fill="#E4E4E4"/>
<path d="M272.651 152.977H232.841C232.429 152.977 232.035 152.806 231.744 152.503C231.453 152.2 231.29 151.789 231.29 151.361C231.29 150.932 231.453 150.522 231.744 150.219C232.035 149.916 232.429 149.745 232.841 149.745H272.651C274.651 149.716 274.671 153.006 272.651 152.977Z" fill="#E4E4E4"/>
<path d="M361.361 104.999L361.496 131.051L362.044 131.019L362.565 140.664L361.547 140.722L361.575 146.516L362.39 146.499L362.555 156.153L361.628 156.17L362.069 241.182C362.079 243.408 361.24 245.547 359.737 247.129C358.235 248.712 356.191 249.609 354.054 249.623L263.904 250.132C261.767 250.142 259.714 249.269 258.195 247.703C256.675 246.138 255.814 244.008 255.801 241.782L255.093 105.6C255.083 103.374 255.922 101.235 257.425 99.6521C258.927 98.0695 260.972 97.1727 263.108 97.1584L353.258 96.6495C355.394 96.6403 357.447 97.5141 358.966 99.0794C360.486 100.645 361.347 102.773 361.361 104.999Z" fill="#3F3D56"/>
<path d="M354.185 244.268L263.718 244.779C263.059 244.782 262.426 244.512 261.958 244.03C261.49 243.547 261.224 242.891 261.22 242.205L260.506 105.117C260.504 104.431 260.762 103.772 261.225 103.284C261.689 102.796 262.319 102.519 262.977 102.515L353.444 102.004C354.103 102.001 354.735 102.27 355.204 102.753C355.672 103.235 355.937 103.892 355.942 104.578L356.655 241.666C356.658 242.352 356.4 243.011 355.936 243.499C355.473 243.987 354.843 244.263 354.185 244.268Z" fill="white"/>
<path d="M307.853 100.19C308.232 100.19 308.539 99.8703 308.539 99.4759C308.539 99.0815 308.232 98.7617 307.853 98.7617C307.474 98.7617 307.167 99.0815 307.167 99.4759C307.167 99.8703 307.474 100.19 307.853 100.19Z" fill="white"/>
<path d="M334.76 140.59H282.401C282.036 140.589 281.686 140.438 281.428 140.169C281.17 139.9 281.025 139.536 281.025 139.156V117.025C281.025 116.645 281.17 116.281 281.428 116.012C281.686 115.743 282.036 115.592 282.401 115.592H334.76C335.125 115.592 335.475 115.743 335.733 116.012C335.991 116.281 336.136 116.645 336.137 117.025V139.156C336.136 139.536 335.991 139.901 335.733 140.169C335.475 140.438 335.125 140.589 334.76 140.59Z" fill="#232F58"/>
<path d="M329.775 151.206H287.387C286.949 151.206 286.529 151.024 286.219 150.702C285.909 150.379 285.735 149.941 285.735 149.485C285.735 149.029 285.909 148.591 286.219 148.269C286.529 147.946 286.949 147.765 287.387 147.765H329.775C331.905 147.734 331.926 151.237 329.775 151.206Z" fill="#E4E4E4"/>
<path d="M329.775 159.09H287.387C286.949 159.09 286.53 158.908 286.221 158.585C285.911 158.263 285.738 157.826 285.738 157.37C285.738 156.914 285.911 156.477 286.221 156.154C286.53 155.832 286.949 155.65 287.387 155.65H329.775C331.905 155.619 331.926 159.122 329.775 159.09Z" fill="#E4E4E4"/>
<path d="M329.775 166.975H287.387C286.949 166.975 286.529 166.794 286.219 166.471C285.909 166.149 285.735 165.711 285.735 165.255C285.735 164.798 285.909 164.361 286.219 164.038C286.529 163.716 286.949 163.534 287.387 163.534H329.775C331.905 163.503 331.926 167.006 329.775 166.975Z" fill="#E4E4E4"/>
<path d="M334.76 204.804H282.401C282.036 204.804 281.686 204.653 281.428 204.384C281.17 204.115 281.025 203.751 281.025 203.371V181.24C281.025 180.86 281.17 180.496 281.428 180.227C281.686 179.958 282.036 179.807 282.401 179.807H334.76C335.125 179.807 335.475 179.958 335.733 180.227C335.991 180.496 336.136 180.86 336.137 181.24V203.371C336.136 203.751 335.991 204.115 335.733 204.384C335.475 204.653 335.125 204.804 334.76 204.804Z" fill="#232F58"/>
<path d="M329.775 215.42H287.387C286.949 215.42 286.529 215.239 286.219 214.916C285.909 214.594 285.735 214.156 285.735 213.7C285.735 213.244 285.909 212.806 286.219 212.484C286.529 212.161 286.949 211.98 287.387 211.98H329.775C331.905 211.949 331.926 215.452 329.775 215.42Z" fill="#E4E4E4"/>
<path d="M329.775 223.305H287.387C286.949 223.304 286.53 223.123 286.221 222.8C285.911 222.478 285.738 222.041 285.738 221.585C285.738 221.129 285.911 220.692 286.221 220.369C286.53 220.047 286.949 219.865 287.387 219.864H329.775C331.905 219.833 331.926 223.336 329.775 223.305Z" fill="#E4E4E4"/>
<path d="M329.775 231.19H287.387C286.949 231.19 286.529 231.009 286.219 230.686C285.909 230.363 285.735 229.926 285.735 229.47C285.735 229.013 285.909 228.576 286.219 228.253C286.529 227.93 286.949 227.749 287.387 227.749H329.775C331.905 227.718 331.926 231.221 329.775 231.19Z" fill="#E4E4E4"/>
<path d="M102.122 243.443L101.948 168.365L102.605 168.364L102.573 154.555L101.916 154.557L101.862 131.506C101.86 130.645 101.695 129.793 101.377 128.998C101.059 128.204 100.594 127.482 100.008 126.875C99.4223 126.268 98.7274 125.786 97.9631 125.459C97.1988 125.131 96.38 124.964 95.5535 124.966L48.7189 125.084C47.8924 125.086 47.0744 125.257 46.3116 125.589C45.5488 125.92 44.8561 126.405 44.2731 127.015C43.6901 127.625 43.2281 128.349 42.9137 129.145C42.5992 129.941 42.4384 130.794 42.4403 131.655L42.4776 147.728L41.4312 147.755L41.6623 157.409L42.5 157.388L42.505 159.518L41.6135 159.541L41.8446 169.195L42.5274 169.178L42.7 243.592C42.7005 244.453 42.8642 245.306 43.1817 246.101C43.4993 246.897 43.9645 247.619 44.5506 248.227C45.1368 248.834 45.8323 249.315 46.5973 249.642C47.3624 249.969 48.1818 250.136 49.0088 250.132L95.8432 250.014C97.5118 250.008 99.1099 249.313 100.287 248.081C101.464 246.849 102.124 245.181 102.122 243.443Z" fill="#3F3D56"/>
<path d="M47.5764 247.127C46.9923 246.909 46.487 246.508 46.1291 245.98C45.7713 245.451 45.5782 244.821 45.5762 244.175L45.314 131.057C45.3121 130.224 45.628 129.424 46.1922 128.833C46.7564 128.243 47.5226 127.91 48.3224 127.908L58.2873 127.883L58.1639 128.2C57.9499 128.75 57.8691 129.347 57.9286 129.937C57.9881 130.528 58.1862 131.094 58.5053 131.586C58.8244 132.078 59.2548 132.481 59.7585 132.759C60.2622 133.037 60.8239 133.182 61.3939 133.18L83.509 133.125C84.0595 133.075 84.591 132.89 85.0604 132.587C85.5298 132.283 85.924 131.869 86.2112 131.377C86.4942 130.893 86.6634 130.347 86.7051 129.783C86.7469 129.218 86.6599 128.651 86.4512 128.129L86.3264 127.812L96.6197 127.786C97.4192 127.785 98.1864 128.115 98.7531 128.702C99.3198 129.29 99.6397 130.087 99.6427 130.92L99.8932 238.844C99.8957 241.054 99.0567 243.175 97.5601 244.741C96.0635 246.308 94.0316 247.192 91.9101 247.2L48.5993 247.309C48.2508 247.31 47.9048 247.249 47.5764 247.127Z" fill="white"/>
<path d="M64.6378 130.564C65.0164 130.564 65.3234 130.244 65.3234 129.85C65.3234 129.456 65.0164 129.136 64.6378 129.136C64.2591 129.136 63.9521 129.456 63.9521 129.85C63.9521 130.244 64.2591 130.564 64.6378 130.564Z" fill="white"/>
<path d="M91.1409 165.329H55.5588C55.3108 165.328 55.0731 165.226 54.8978 165.043C54.7225 164.86 54.6238 164.613 54.6235 164.355V149.315C54.6238 149.057 54.7225 148.809 54.8978 148.627C55.0731 148.444 55.3108 148.341 55.5588 148.341H91.1409C91.3889 148.341 91.6266 148.444 91.8019 148.627C91.9773 148.809 92.0759 149.057 92.0762 149.315V164.355C92.0759 164.613 91.9773 164.86 91.8019 165.043C91.6266 165.226 91.3889 165.328 91.1409 165.329Z" fill="#232F58"/>
<path d="M87.7527 172.543H58.9468C58.7992 172.544 58.6531 172.514 58.5166 172.455C58.3802 172.396 58.2562 172.31 58.1518 172.202C58.0473 172.093 57.9644 171.964 57.9079 171.822C57.8514 171.68 57.8223 171.528 57.8223 171.374C57.8223 171.221 57.8514 171.068 57.9079 170.926C57.9644 170.784 58.0473 170.655 58.1518 170.547C58.2562 170.438 58.3802 170.352 58.5166 170.294C58.6531 170.235 58.7992 170.205 58.9468 170.205H87.7527C89.2001 170.184 89.2146 172.565 87.7527 172.543Z" fill="#E4E4E4"/>
<path d="M87.7529 177.902H58.947C58.6494 177.902 58.3639 177.779 58.1534 177.559C57.9429 177.34 57.8247 177.043 57.8247 176.733C57.8247 176.423 57.9429 176.125 58.1534 175.906C58.3639 175.687 58.6494 175.564 58.947 175.564H87.7529C89.2003 175.543 89.2148 177.923 87.7529 177.902Z" fill="#E4E4E4"/>
<path d="M87.7527 183.26H58.9468C58.7992 183.26 58.6531 183.23 58.5166 183.172C58.3802 183.113 58.2562 183.027 58.1518 182.919C58.0473 182.81 57.9644 182.681 57.9079 182.539C57.8514 182.397 57.8223 182.245 57.8223 182.091C57.8223 181.937 57.8514 181.785 57.9079 181.643C57.9644 181.501 58.0473 181.372 58.1518 181.264C58.2562 181.155 58.3802 181.069 58.5166 181.01C58.6531 180.952 58.7992 180.922 58.9468 180.922H87.7527C89.2001 180.901 89.2146 183.281 87.7527 183.26Z" fill="#E4E4E4"/>
<path d="M91.1409 210.397H55.5588C55.3108 210.397 55.0731 210.294 54.8978 210.111C54.7225 209.929 54.6238 209.681 54.6235 209.423V194.383C54.6238 194.125 54.7225 193.877 54.8978 193.695C55.0731 193.512 55.3108 193.409 55.5588 193.409H91.1409C91.3889 193.409 91.6266 193.512 91.8019 193.695C91.9773 193.877 92.0759 194.125 92.0762 194.383V209.423C92.0759 209.681 91.9773 209.929 91.8019 210.111C91.6266 210.294 91.3889 210.397 91.1409 210.397Z" fill="#232F58"/>
<path d="M87.7527 217.612H58.9468C58.7992 217.612 58.6531 217.582 58.5166 217.523C58.3802 217.465 58.2562 217.379 58.1518 217.27C58.0473 217.162 57.9644 217.033 57.9079 216.891C57.8514 216.749 57.8223 216.596 57.8223 216.443C57.8223 216.289 57.8514 216.137 57.9079 215.995C57.9644 215.853 58.0473 215.724 58.1518 215.615C58.2562 215.507 58.3802 215.42 58.5166 215.362C58.6531 215.303 58.7992 215.273 58.9468 215.274H87.7527C89.2001 215.253 89.2146 217.633 87.7527 217.612Z" fill="#E4E4E4"/>
<path d="M87.7529 222.97H58.947C58.6494 222.97 58.3639 222.847 58.1534 222.628C57.9429 222.408 57.8247 222.111 57.8247 221.801C57.8247 221.491 57.9429 221.194 58.1534 220.974C58.3639 220.755 58.6494 220.632 58.947 220.632H87.7529C89.2003 220.611 89.2148 222.991 87.7529 222.97Z" fill="#E4E4E4"/>
<path d="M87.7527 228.329H58.9468C58.7992 228.329 58.6531 228.299 58.5166 228.24C58.3802 228.182 58.2562 228.096 58.1518 227.987C58.0473 227.878 57.9644 227.749 57.9079 227.607C57.8514 227.465 57.8223 227.313 57.8223 227.159C57.8223 227.006 57.8514 226.854 57.9079 226.712C57.9644 226.57 58.0473 226.441 58.1518 226.332C58.2562 226.223 58.3802 226.137 58.5166 226.079C58.6531 226.02 58.7992 225.99 58.9468 225.99H87.7527C89.2001 225.969 89.2146 228.35 87.7527 228.329Z" fill="#E4E4E4"/>
<path d="M11.6005 246.023L15.467 246.023L17.3062 230.488H11.5996L11.6005 246.023Z" fill="#A0616A"/>
<path d="M10.6143 244.708L11.7025 244.708L15.9512 242.908L18.2284 244.708H18.2287C19.5156 244.708 20.7498 245.24 21.6597 246.188C22.5697 247.136 23.081 248.422 23.0811 249.762V249.927L10.6145 249.927L10.6143 244.708Z" fill="#2F2E41"/>
<path d="M26.583 243.485L30.3541 244.372L35.4333 229.641L29.8672 228.332L26.583 243.485Z" fill="#A0616A"/>
<path d="M25.8993 241.976L26.9608 242.226L31.4858 241.445L33.3265 243.723L33.3268 243.723C34.5821 244.019 35.6733 244.821 36.3605 245.955C37.0476 247.088 37.2745 248.459 36.9911 249.767L36.9564 249.927L24.7959 247.067L25.8993 241.976Z" fill="#2F2E41"/>
<path d="M6.70367 151.054C4.89096 156.749 5.0826 162.93 7.13938 169.565L8.01862 206.92C8.01862 206.92 6.70862 231.417 10.9357 240.037H17.0662L20.1015 204.683L20.4826 180.953L33.6257 200.973L25.2545 239.459L32.7996 240.162L46.3839 198.396L29.6236 157.875L6.70367 151.054Z" fill="#2F2E41"/>
<path d="M30.7166 159.072L8.42481 155.358C7.84017 155.163 7.30296 154.838 6.85009 154.406C6.39721 153.975 6.03938 153.446 5.80117 152.857C5.56295 152.267 5.44999 151.631 5.47004 150.992C5.49009 150.353 5.64268 149.726 5.91733 149.154L6.92824 147.047L6.53556 124.918C6.48823 122.039 7.16948 119.198 8.51078 116.681C9.85208 114.164 11.8061 112.059 14.1763 110.578L16.3502 109.224L17.4488 106.318L27.5789 106.576L27.6084 110.387L31.2363 116.413L31.2362 116.438L31.0085 149.238L30.0087 152.622L31.5205 156.559L30.7166 159.072Z" fill="#3F3D56"/>
<path d="M23.4416 102.704C28.525 102.704 32.6459 98.4115 32.6459 93.1162C32.6459 87.821 28.525 83.5283 23.4416 83.5283C18.3582 83.5283 14.2373 87.821 14.2373 93.1162C14.2373 98.4115 18.3582 102.704 23.4416 102.704Z" fill="#A0616A"/>
<path d="M13.871 95.0488C13.5964 93.844 13.7225 92.1487 13.8776 90.9357C14.0763 89.3361 14.5954 87.7979 15.4013 86.4207C16.2071 85.0435 17.2818 83.8581 18.5556 82.9412C19.044 82.5548 19.6244 82.3146 20.2342 82.2464C20.539 82.2196 20.8441 82.294 21.1058 82.4589C21.3675 82.6238 21.5724 82.8708 21.6912 83.1644C21.8447 82.7653 22.0751 82.4032 22.3682 82.1004C22.6612 81.7977 23.0108 81.5607 23.3952 81.4042C24.1674 81.096 24.9979 80.9794 25.8209 81.0637C27.416 81.2007 28.9458 81.785 30.2479 82.7545C31.55 83.7241 32.5758 85.0428 33.2165 86.5707C33.4623 87.179 34.149 84.9319 34.4605 85.5067C34.7467 86.1042 35.2461 86.5613 35.8518 86.7801C36.4621 86.9575 36.71 89.577 36.9502 88.9661C37.1366 89.4176 37.2103 89.9108 37.1644 90.3998C37.1185 90.8889 36.9545 91.3579 36.6877 91.7631C36.421 92.1684 36.0601 92.4968 35.6387 92.7176C35.2173 92.9385 34.7492 93.0447 34.2778 93.0263C33.6616 92.9433 33.0508 92.8215 32.4487 92.6616C31.3432 92.5165 30.225 92.798 29.3051 93.453C28.3853 94.108 27.7275 95.0912 27.4559 96.2169C27.2879 95.5623 27.0195 94.9402 26.6611 94.3748C26.4792 94.0936 26.2354 93.8616 25.9501 93.6983C25.6647 93.535 25.3461 93.445 25.0206 93.4359C24.7096 93.4731 24.409 93.5761 24.1376 93.7386C23.8661 93.9012 23.6294 94.1198 23.442 94.3812C23.0368 94.8768 22.7324 95.455 22.3242 95.948C21.1265 97.3944 19.5065 100.768 17.7995 100.522C16.4525 100.327 14.2458 96.6937 13.871 95.0488Z" fill="#2F2E41"/>
<path d="M57.7541 152.073C57.3623 152.25 56.9381 152.336 56.5111 152.324C56.0841 152.312 55.6649 152.202 55.2829 152.003C54.9009 151.804 54.5655 151.52 54.3002 151.172C54.0349 150.823 53.8463 150.418 53.7476 149.985L43.418 148.898L46.8258 144.541L56.1125 146.241C56.8216 146.117 57.5499 146.267 58.1594 146.665C58.769 147.062 59.2174 147.679 59.4198 148.397C59.6221 149.116 59.5643 149.887 59.2573 150.565C58.9503 151.242 58.4155 151.779 57.7541 152.073Z" fill="#A0616A"/>
<path d="M51.4007 150.344L27.2949 148.03L27.2618 147.991L9.66868 126.992C8.51087 125.144 8.07493 122.905 8.45014 120.734C8.82535 118.562 9.98331 116.622 11.6869 115.311C12.6296 114.587 13.7086 114.079 14.8532 113.821C15.9977 113.563 17.1816 113.561 18.3272 113.814C19.4727 114.067 20.5538 114.57 21.4993 115.289C22.4448 116.009 23.2332 116.929 23.8127 117.989L34.6487 137.809L51.6663 144.932L51.4007 150.344Z" fill="#3F3D56"/>
<path d="M424.474 250.5H0.525602C0.386452 250.5 0.253139 250.442 0.154887 250.339C0.0566351 250.237 0.00146484 250.098 0.00146484 249.953C0.00146484 249.808 0.0566351 249.669 0.154887 249.566C0.253139 249.464 0.386452 249.406 0.525602 249.405H424.474C424.614 249.405 424.747 249.463 424.846 249.566C424.945 249.668 425 249.808 425 249.953C425 250.098 424.945 250.237 424.846 250.34C424.747 250.443 424.614 250.5 424.474 250.5Z" fill="#CCCCCC"/>
<path d="M350.747 152.626C351.141 152.666 351.538 152.615 351.911 152.477C352.283 152.339 352.622 152.118 352.904 151.829C353.186 151.54 353.403 151.19 353.541 150.804C353.679 150.418 353.734 150.006 353.702 149.595L362.498 145.561L358.302 142.74L350.592 147.003C349.934 147.105 349.334 147.454 348.906 147.986C348.479 148.517 348.253 149.194 348.272 149.887C348.291 150.58 348.554 151.242 349.01 151.747C349.466 152.251 350.084 152.565 350.747 152.626V152.626Z" fill="#FFB6B6"/>
<path d="M355.919 148.678L354.357 143.013L370.168 134.749L379.495 116.028C379.956 115.103 380.607 114.294 381.402 113.661C382.197 113.027 383.115 112.583 384.093 112.361C385.071 112.138 386.084 112.143 387.06 112.374C388.036 112.606 388.951 113.058 389.74 113.699C391.165 114.859 392.089 116.559 392.311 118.428C392.533 120.297 392.034 122.181 390.924 123.668L376.899 142.402L355.919 148.678Z" fill="#E4E4E4"/>
</g>
<defs>
<clipPath id="clip0_1695_895">
<rect width="425" height="250" fill="white" transform="translate(0 0.5)"/>
</clipPath>
</defs>
</svg>
