<svg width="444" height="269" viewBox="0 0 444 269" fill="none" xmlns="http://www.w3.org/2000/svg">
<g clip-path="url(#clip0_1695_983)">
<path d="M432.662 259.834L428.277 261.529L418.982 246.988L425.454 244.485L432.662 259.834Z" fill="#FFB6B6"/>
<path d="M396.427 263.599L391.661 263.599L389.393 246.915H396.428L396.427 263.599Z" fill="#FFB6B6"/>
<path d="M396.595 268.112L381.938 268.111V267.943C381.938 266.57 382.539 265.253 383.609 264.282C384.678 263.312 386.129 262.766 387.642 262.766H387.643L390.32 260.923L395.315 262.766L396.595 262.766L396.595 268.112Z" fill="#2F2E41"/>
<path d="M435.327 262.722L421.844 267.937L421.771 267.782C421.178 266.519 421.162 265.094 421.727 263.82C422.292 262.546 423.391 261.528 424.783 260.99L424.783 260.99L426.449 258.341L431.841 258.26L433.018 257.805L435.327 262.722Z" fill="#2F2E41"/>
<path d="M391.751 164.859L384.508 204.887L386.479 210.852L383.892 215.076L387.691 252.177L386.149 255.257L390.457 257.669H399.224L399.69 224.081L401.855 219.15V216.432L406.264 195.952L407.076 219.379L408.358 224.318L407.281 227.835L408.688 230.298L420.75 253.803H430.581L429.821 248.487C431.582 247.678 427.176 245.313 426.753 243.563L428.201 240.607L426.753 235.024L425.426 224.115L426.826 201.088L426.167 170.078C422.866 166.062 419.205 162.965 414.667 162.098L391.751 164.859Z" fill="#2F2E41"/>
<path d="M409.392 112.145C414.879 112.145 419.326 108.108 419.326 103.129C419.326 98.1497 414.879 94.1133 409.392 94.1133C403.905 94.1133 399.457 98.1497 399.457 103.129C399.457 108.108 403.905 112.145 409.392 112.145Z" fill="#FFB6B6"/>
<path d="M368.431 174.316C368.307 173.81 368.307 173.285 368.431 172.779C368.555 172.272 368.8 171.797 369.148 171.386C369.497 170.974 369.94 170.638 370.447 170.399C370.955 170.16 371.513 170.025 372.085 170.003L376.086 157.93L380.713 162.959L376.203 173.653C376.18 174.526 375.804 175.361 375.148 175.999C374.492 176.638 373.6 177.036 372.642 177.118C371.684 177.199 370.726 176.959 369.95 176.443C369.174 175.927 368.634 175.17 368.431 174.316Z" fill="#FFB6B6"/>
<path d="M394.392 124.691L392.599 121.717L390.287 122.417C390.287 122.417 387.736 123.911 384.163 129.551C382.511 132.16 378.939 148.888 378.939 148.888L370.59 168.95L379.102 170.256L386.204 153.723L394.437 137.901L394.392 124.691Z" fill="#232F58"/>
<path d="M409.023 164.733C416.018 164.733 423.076 165.982 425.966 170.45C425.891 169.479 425.701 167.794 425.505 166.249L424.781 162.096L425.514 158.288L426.483 157.409L424.748 155.835L425.931 147.887L429.837 129.163C430.143 127.69 429.905 126.166 429.158 124.829C428.411 123.492 427.199 122.416 425.709 121.769L421.956 120.132L415.873 115.011L404.868 114.937L401.278 119.172L391.828 122.085L393.414 151.866L392.374 154.068C392.608 154.262 393.099 154.677 393.365 154.945C393.742 155.323 393.262 157.27 392.943 158.397L392.503 161.399L393.886 162.295L392.089 164.222L391.729 166.668C393.514 166.285 401.23 164.733 409.023 164.733Z" fill="#232F58"/>
<path d="M411.933 111.704C411.975 111.619 412.017 111.534 412.059 111.448C412.043 111.449 412.027 111.451 412.011 111.451L411.933 111.704Z" fill="#2F2E41"/>
<path d="M419.603 94.5232C419.131 94.1194 418.518 93.8788 417.871 93.8436C417.228 93.8624 416.577 94.3889 416.71 94.9596C415.53 93.0636 413.652 91.6053 411.405 90.8408C409.158 90.0763 406.687 90.0543 404.424 90.7788C402.827 91.29 401.261 92.3128 400.894 93.8128C400.859 94.2066 400.729 94.5887 400.515 94.9327C400.33 95.1166 400.089 95.2473 399.822 95.3085C399.556 95.3698 399.275 95.359 399.016 95.2775L399 95.2732C398.911 95.2457 398.815 95.243 398.724 95.2655C398.634 95.288 398.553 95.3346 398.492 95.3994C398.431 95.4641 398.392 95.544 398.382 95.6288C398.371 95.7135 398.389 95.7991 398.433 95.8746L398.885 96.6392C398.315 96.7544 397.723 96.743 397.16 96.6059C397.066 96.5836 396.967 96.5882 396.877 96.6189C396.786 96.6497 396.708 96.7052 396.653 96.7777C396.599 96.8503 396.57 96.9364 396.572 97.0242C396.573 97.112 396.605 97.1973 396.662 97.2682C397.413 98.2004 398.393 98.9607 399.524 99.4885C400.656 100.016 401.908 100.297 403.18 100.309C404.985 100.299 406.809 99.7342 408.565 100.111C409.245 100.257 409.88 100.539 410.424 100.936C410.968 101.334 411.407 101.837 411.709 102.408C412.01 102.98 412.167 103.605 412.168 104.239C412.168 104.873 412.013 105.498 411.712 106.07C412.252 105.535 413.295 105.662 413.847 106.187C414.101 106.468 414.289 106.794 414.399 107.143C414.509 107.493 414.539 107.86 414.486 108.22C414.339 109.325 413.978 110.397 413.419 111.387C415.554 111.327 417.617 110.674 419.329 109.517C421.042 108.359 422.322 106.752 422.996 104.914C423.671 103.075 423.707 101.092 423.1 99.2341C422.493 97.376 421.272 95.7317 419.603 94.5232H419.603Z" fill="#2F2E41"/>
<path d="M98.5258 60.8625C112.167 60.8625 123.225 50.8271 123.225 38.4479C123.225 26.0686 112.167 16.0332 98.5258 16.0332C84.8846 16.0332 73.8262 26.0686 73.8262 38.4479C73.8262 50.8271 84.8846 60.8625 98.5258 60.8625Z" fill="#232F58"/>
<path d="M29.105 105.125C16.7116 80.2475 17.1685 48.7143 36.4027 27.7217C42.8376 56.8313 60.4113 82.9372 86.0144 101.42C95.9169 108.516 107.745 115.473 110.45 126.657C112.134 133.615 109.748 140.976 105.623 147.038C101.498 153.1 95.7478 158.086 90.0634 163L89.4256 164.682C64.6907 149.141 41.4984 130.002 29.105 105.125Z" fill="#232F58"/>
<path d="M36.9382 28.0251C32.5117 50.0215 35.8001 73.4437 46.5593 93.5965C48.8854 97.9535 51.6629 102.19 55.3816 105.694C59.1019 109.2 63.5501 111.407 68.6671 112.762C73.3452 114.002 78.2885 114.778 82.553 117.028C87.0481 119.399 89.8377 123.379 90.9244 127.942C92.254 133.525 91.2937 139.209 90.1418 144.737C88.8627 150.876 87.4271 157.234 89.2805 163.404C89.5051 164.152 88.2135 164.425 87.9893 163.678C84.7647 152.942 91.0342 142.353 90.1578 131.559C89.7489 126.522 87.6649 121.567 82.906 118.649C78.7446 116.097 73.6478 115.292 68.8992 114.075C63.9131 112.796 59.4353 110.842 55.625 107.602C51.7273 104.288 48.7614 100.141 46.3228 95.8574C40.823 86.1961 37.1976 75.5517 35.2794 64.8346C33.0737 52.5168 33.2062 39.9473 35.6711 27.67C35.824 26.9102 37.0901 27.2703 36.9382 28.0251H36.9382Z" fill="white"/>
<path d="M42.681 87.2133C38.6659 88.381 34.3241 88.2156 30.431 86.7465C26.538 85.2773 23.3471 82.6002 21.4283 79.1932C21.0427 78.5026 22.2071 77.9263 22.5932 78.6178C24.3736 81.7934 27.3461 84.2869 30.9744 85.6483C34.6027 87.0096 38.6478 87.1491 42.3795 86.0415C43.1907 85.8017 43.4876 86.9749 42.681 87.2133H42.681Z" fill="white"/>
<path d="M66.2036 112.418C70.2157 105.495 71.2053 97.4548 68.975 89.8997C68.7533 89.1513 70.0448 88.8786 70.2662 89.626C72.5709 97.492 71.5224 105.857 67.3298 113.053C66.9297 113.738 65.8056 113.1 66.2036 112.418H66.2036Z" fill="white"/>
<path d="M34.7782 52.9074C36.4354 52.7494 38.0235 52.2202 39.3998 51.3676C40.776 50.5149 41.8973 49.3653 42.663 48.0222C43.0534 47.3324 44.1771 47.9719 43.7893 48.6573C42.9357 50.1377 41.6956 51.4058 40.1773 52.351C38.6591 53.2961 36.9089 53.8895 35.0797 54.0792C34.9089 54.1102 34.7315 54.081 34.5836 53.9976C34.4357 53.9142 34.3283 53.7828 34.2833 53.6301C34.2442 53.4748 34.2743 53.3117 34.367 53.1764C34.4596 53.0411 34.6074 52.9444 34.7782 52.9074Z" fill="white"/>
<path d="M138.263 27.9658C138.033 28.4029 137.803 28.8399 137.578 29.2859C134.516 35.176 131.986 41.2822 130.014 47.5441C129.853 48.0261 129.698 48.5167 129.553 49.0018C124.978 64.1342 123.539 79.9057 125.309 95.5148C126.02 101.725 127.25 107.878 128.989 113.919C131.392 122.262 134.728 131.135 133.975 139.466C133.907 140.336 133.78 141.201 133.595 142.057L91.736 165.258C91.6117 165.268 91.4928 165.286 91.368 165.296L89.7434 166.291C89.6297 165.985 89.519 165.666 89.4054 165.36C89.3386 165.183 89.2812 165.001 89.2144 164.823C89.1729 164.704 89.1318 164.584 89.0867 164.478C89.0727 164.438 89.0592 164.398 89.051 164.367C89.006 164.261 88.9765 164.158 88.9373 164.061C88.3134 162.276 87.7021 160.485 87.1036 158.687C87.0978 158.678 87.0978 158.678 87.1012 158.664C82.5794 144.951 79.2794 130.775 78.4554 116.594C78.4307 116.168 78.3998 115.733 78.3943 115.296C78.0619 108.902 78.3059 102.494 79.1239 96.1367C79.5842 92.6568 80.2382 89.2003 81.0836 85.7804C83.2867 76.9478 87.0069 68.4846 92.1081 60.7011C102.28 45.1861 117.806 32.796 136.808 28.2966C137.294 28.1819 137.771 28.0719 138.263 27.9658Z" fill="#232F58"/>
<path d="M138.494 28.5001C120.366 43.6445 107.452 64.1425 102.672 86.1119C101.639 90.8616 101.046 95.7614 101.691 100.591C102.335 105.423 104.423 109.615 107.609 113.494C110.522 117.039 113.954 120.36 115.866 124.487C117.882 128.836 117.469 133.537 115.309 137.774C112.667 142.959 108.129 146.972 103.541 150.757C98.4476 154.96 93.0834 159.251 90.4693 165.191C90.1525 165.911 88.9405 165.423 89.2568 164.704C93.8049 154.37 105.836 149.341 112.297 140.244C115.312 135.999 116.936 130.904 115.073 125.973C113.443 121.662 109.907 118.235 106.924 114.668C103.791 110.923 101.512 106.917 100.619 102.248C99.7057 97.4719 100.089 92.5407 100.984 87.7878C103.002 77.069 107.169 66.5891 112.748 56.9841C119.159 45.9439 127.604 35.9802 137.717 27.5243C138.344 27.0012 139.116 27.9804 138.494 28.5002L138.494 28.5001Z" fill="white"/>
<path d="M103.811 78.8961C99.8303 77.6348 96.4735 75.1304 94.3397 71.8304C92.206 68.5303 91.4344 64.6493 92.1627 60.8807C92.313 60.1186 93.625 60.2946 93.4746 61.0578C92.7893 64.566 93.5084 68.1811 95.5022 71.2504C97.4961 74.3197 100.633 76.6412 104.348 77.7958C105.154 78.0476 104.613 79.1465 103.811 78.8961H103.811Z" fill="white"/>
<path d="M105.871 111.872C113.667 108.537 119.792 102.658 123.023 95.4068C123.343 94.6882 124.555 95.176 124.236 95.8938C120.857 103.434 114.47 109.54 106.349 112.994C105.575 113.323 105.101 112.199 105.871 111.872L105.871 111.872Z" fill="white"/>
<path d="M120.261 47.1872C121.689 47.9665 123.308 48.4117 124.972 48.4829C126.637 48.554 128.295 48.2488 129.797 47.5947C130.567 47.2572 131.04 48.3818 130.275 48.7172C128.612 49.4328 126.78 49.7678 124.941 49.6929C123.101 49.618 121.31 49.1355 119.724 48.2876C119.567 48.219 119.445 48.0988 119.382 47.9514C119.319 47.804 119.321 47.6404 119.386 47.4939C119.458 47.3485 119.59 47.2348 119.754 47.1774C119.918 47.1199 120.1 47.1235 120.261 47.1872Z" fill="white"/>
<path d="M237.357 77.8759C224.964 52.9985 225.42 21.4653 244.655 0.472656C251.09 29.5823 268.663 55.6882 294.266 74.1714C304.169 81.2672 315.997 88.2236 318.702 99.4076C320.386 106.366 318 113.727 313.875 119.789C309.75 125.851 304 130.837 298.315 135.751L297.678 137.433C272.943 121.892 249.75 102.753 237.357 77.8759Z" fill="#232F58"/>
<path d="M245.19 0.776122C240.763 22.7725 244.052 46.1947 254.811 66.3475C257.137 70.7045 259.914 74.9406 263.633 78.4448C267.353 81.9506 271.802 84.1575 276.919 85.5133C281.597 86.7528 286.54 87.5291 290.804 89.7789C295.3 92.1504 298.089 96.1296 299.176 100.693C300.506 106.276 299.545 111.96 298.393 117.488C297.114 123.627 295.679 129.985 297.532 136.155C297.757 136.903 296.465 137.176 296.241 136.429C293.016 125.693 299.286 115.104 298.409 104.31C298 99.2733 295.916 94.3179 291.157 91.3997C286.996 88.8478 281.899 88.0434 277.151 86.8255C272.165 85.5467 267.687 83.5934 263.876 80.3532C259.979 77.0388 257.013 72.8923 254.574 68.6084C249.075 58.9471 245.449 48.3027 243.531 37.5856C241.325 25.2678 241.458 12.6983 243.923 0.421004C244.075 -0.338826 245.342 0.0212758 245.19 0.776122H245.19Z" fill="white"/>
<path d="M250.933 59.9643C246.918 61.132 242.576 60.9666 238.683 59.4974C234.79 58.0283 231.599 55.3512 229.68 51.9442C229.295 51.2536 230.459 50.6773 230.845 51.3688C232.626 54.5444 235.598 57.0379 239.226 58.3992C242.855 59.7606 246.9 59.9001 250.631 58.7925C251.443 58.5527 251.74 59.7259 250.933 59.9643Z" fill="white"/>
<path d="M274.456 85.1687C278.468 78.2462 279.457 70.2058 277.227 62.6506C277.005 61.9023 278.297 61.6295 278.518 62.377C280.823 70.243 279.774 78.6084 275.582 85.8037C275.182 86.4893 274.058 85.8505 274.456 85.1687H274.456Z" fill="white"/>
<path d="M243.03 25.6584C244.687 25.5003 246.275 24.9712 247.651 24.1185C249.027 23.2659 250.149 22.1163 250.914 20.7732C251.305 20.0833 252.429 20.7229 252.041 21.4083C251.187 22.8887 249.947 24.1568 248.429 25.102C246.911 26.0471 245.16 26.6404 243.331 26.8302C243.16 26.8612 242.983 26.832 242.835 26.7486C242.687 26.6652 242.58 26.5338 242.535 26.3811C242.496 26.2258 242.526 26.0627 242.618 25.9274C242.711 25.7921 242.859 25.6954 243.03 25.6584V25.6584Z" fill="white"/>
<path d="M346.515 0.71582C346.285 1.15285 346.054 1.58989 345.829 2.03586C342.767 7.92602 340.238 14.0322 338.266 20.2941C338.105 20.7761 337.95 21.2667 337.804 21.7518C333.23 36.8842 331.791 52.6558 333.561 68.2648C334.271 74.4754 335.502 80.6279 337.241 86.6692C339.643 95.0122 342.979 103.885 342.227 112.216C342.159 113.086 342.032 113.951 341.846 114.807L299.987 138.008C299.863 138.018 299.744 138.036 299.619 138.046L297.995 139.041C297.881 138.736 297.771 138.416 297.657 138.11C297.59 137.933 297.533 137.751 297.466 137.573C297.424 137.454 297.383 137.334 297.338 137.228C297.324 137.188 297.311 137.148 297.302 137.117C297.257 137.011 297.228 136.908 297.189 136.811C296.565 135.026 295.954 133.235 295.355 131.437C295.349 131.428 295.349 131.428 295.353 131.414C290.831 117.701 287.531 103.525 286.707 89.3445C286.682 88.9178 286.651 88.4828 286.646 88.0455C286.313 81.6519 286.557 75.2443 287.375 68.8867C287.836 65.4068 288.49 61.9503 289.335 58.5304C291.538 49.6978 295.258 41.2346 300.36 33.4511C310.531 17.9361 326.057 5.54597 345.059 1.04664C345.545 0.931861 346.023 0.82193 346.515 0.71582Z" fill="#232F58"/>
<path d="M346.745 1.25014C328.618 16.3945 315.704 36.8925 310.924 58.8619C309.891 63.6116 309.298 68.5115 309.943 73.3412C310.587 78.173 312.675 82.3655 315.861 86.2438C318.774 89.7894 322.206 93.1101 324.118 97.2365C326.134 101.586 325.721 106.287 323.561 110.525C320.919 115.709 316.381 119.722 311.793 123.507C306.7 127.71 301.335 132.002 298.721 137.941C298.404 138.661 297.192 138.173 297.509 137.454C302.057 127.12 314.088 122.091 320.549 112.994C323.564 108.749 325.188 103.654 323.324 98.7235C321.695 94.4123 318.159 90.9852 315.176 87.4183C312.043 83.673 309.763 79.6669 308.871 74.9979C307.958 70.2219 308.341 65.2907 309.236 60.5379C311.254 49.819 315.421 39.3391 321 29.7341C327.411 18.6939 335.856 8.73025 345.969 0.274287C346.596 -0.248849 347.368 0.730435 346.745 1.25015L346.745 1.25014Z" fill="white"/>
<path d="M312.063 51.6471C308.082 50.3857 304.725 47.8814 302.592 44.5813C300.458 41.2812 299.686 37.4003 300.415 33.6316C300.565 32.8695 301.877 33.0456 301.727 33.8087C301.041 37.317 301.76 40.932 303.754 44.0014C305.748 47.0707 308.885 49.3922 312.599 50.5468C313.406 50.7986 312.865 51.8974 312.063 51.6471H312.063Z" fill="white"/>
<path d="M314.123 84.623C321.919 81.2879 328.043 75.4087 331.275 68.1578C331.594 67.4391 332.806 67.927 332.487 68.6448C329.109 76.1846 322.722 82.291 314.601 85.7454C313.826 86.0742 313.353 84.95 314.123 84.623L314.123 84.623Z" fill="white"/>
<path d="M328.513 19.9372C329.941 20.7165 331.56 21.1617 333.224 21.2329C334.889 21.304 336.547 20.9988 338.049 20.3447C338.819 20.0072 339.291 21.1318 338.527 21.4671C336.863 22.1828 335.032 22.5178 333.193 22.4429C331.353 22.368 329.562 21.8855 327.976 21.0376C327.819 20.969 327.697 20.8488 327.634 20.7014C327.571 20.554 327.573 20.3904 327.638 20.2439C327.71 20.0985 327.842 19.9848 328.006 19.9274C328.17 19.8699 328.352 19.8735 328.513 19.9372Z" fill="white"/>
<path d="M79.3955 262.375L83.9706 265.591L101.759 268.391L121.53 223.79C121.53 223.79 133.638 189.418 167.539 196.45L276.508 194.692C276.508 194.692 309.966 191.58 315.495 205.899C316.542 208.611 344.795 268.528 344.795 268.528L364.604 265.991L362.23 214.909L315.182 115.801L233.405 111.167L149.136 116.46L79.3955 262.375Z" fill="#3F3D56"/>
<path d="M169.961 199.526C187.347 199.526 201.441 186.736 201.441 170.958C201.441 155.181 187.347 142.391 169.961 142.391C152.575 142.391 138.481 155.181 138.481 170.958C138.481 186.736 152.575 199.526 169.961 199.526Z" fill="#2F2E41"/>
<path d="M275.539 199.526C292.925 199.526 307.019 186.736 307.019 170.958C307.019 155.181 292.925 142.391 275.539 142.391C258.154 142.391 244.06 155.181 244.06 170.958C244.06 186.736 258.154 199.526 275.539 199.526Z" fill="#2F2E41"/>
<path d="M133.154 77.3439L146.115 75.0374C146.115 75.0374 243.705 62.4008 305.39 77.3439L300.724 89.2105L137.513 88.3315L133.154 77.3439Z" fill="#E6E6E6"/>
<path d="M264.734 138.655H181.914C171.858 138.655 163.167 132.336 161.248 123.63L152.185 82.4909C151.984 81.5931 151.992 80.6672 152.208 79.7724C152.424 78.8776 152.843 78.0336 153.439 77.2941C154.062 76.5183 154.855 75.867 155.767 75.3807C156.679 74.8944 157.692 74.5834 158.742 74.4671C202.422 69.5468 245.676 69.5384 287.301 74.4416C288.336 74.5567 289.335 74.8639 290.234 75.3441C291.133 75.8244 291.913 76.4674 292.527 77.2331C293.119 77.9619 293.539 78.7935 293.761 79.676C293.984 80.5586 294.004 81.4733 293.82 82.3632L285.454 123.376C283.648 132.229 274.934 138.655 264.734 138.655Z" fill="#232F58"/>
<path d="M96.3125 84.0424L96.6731 78.1552C96.7293 77.2381 97.0296 76.3469 97.5482 75.5581C98.0669 74.7692 98.7884 74.1061 99.6511 73.6256C104.88 70.7144 118.986 64.3047 136.987 67.6647C138.251 67.9021 139.404 68.487 140.289 69.3399C141.174 70.1928 141.748 71.2723 141.933 72.4316L142.415 75.4948L96.3125 84.0424Z" fill="#3F3D56"/>
<path d="M350.157 84.0424L304.054 75.4948L304.829 70.5736C304.918 69.9924 305.197 69.4488 305.629 69.0126C306.062 68.5765 306.628 68.2676 307.255 68.1259C328.015 63.398 343.906 71.794 348.282 74.48C348.697 74.7358 349.042 75.0749 349.29 75.471C349.538 75.867 349.682 76.3095 349.711 76.7642L350.157 84.0424Z" fill="#3F3D56"/>
<path d="M81.6743 266.214C80.5633 266.225 79.4722 265.946 78.5303 265.412C66.1859 258.87 58.49 246.882 55.6738 229.792C53.3476 215.674 54.319 197.955 58.561 177.125C66.0817 140.195 81.8443 103.281 88.2723 89.1247C89.1238 87.2562 90.4471 85.5953 92.1354 84.2758C93.8238 82.9564 95.8301 82.0152 97.9927 81.5282C111.244 78.5704 134.377 73.6084 140.418 73.6084C148.698 73.6084 153.177 80.681 153.222 80.7525L153.246 80.8108L160.517 109.423V109.836C164.528 122.152 161.548 131.048 158.339 136.343C154.857 142.091 150.35 144.96 150.305 144.989C143.229 149.877 131.701 165.626 120.227 186.083C108.304 207.343 99.4657 228.32 96.5844 242.199C93.0578 259.185 87.8882 264.385 84.1724 265.756C83.3805 266.055 82.5319 266.21 81.6743 266.214Z" fill="#E6E6E6"/>
<path d="M262.004 135.139H183.75C179.131 135.133 174.658 133.672 171.094 131.006C167.531 128.339 165.098 124.633 164.211 120.52L155.647 80.509C155.456 79.6234 155.468 78.7118 155.681 77.8305C155.895 76.9492 156.305 76.1169 156.886 75.385C157.468 74.6532 158.209 74.0373 159.063 73.5754C159.917 73.1136 160.867 72.8155 161.853 72.6997C203.127 67.9143 243.998 67.9062 283.329 72.6748C284.301 72.7949 285.236 73.0925 286.079 73.5495C286.921 74.0065 287.652 74.6135 288.229 75.334C288.805 76.0545 289.215 76.8734 289.434 77.7415C289.652 78.6096 289.674 79.5088 289.5 80.385L281.594 120.273C280.771 124.443 278.357 128.218 274.775 130.936C271.194 133.654 266.673 135.141 262.004 135.139Z" fill="#E6E6E6"/>
<path d="M364.797 266.215C363.939 266.211 363.089 266.055 362.297 265.756C358.581 264.385 353.412 259.185 349.885 242.199C347.004 228.32 338.165 207.343 326.242 186.083C314.769 165.626 303.24 149.877 296.155 144.983C296.119 144.96 291.613 142.091 288.13 136.343C284.921 131.048 281.941 122.152 285.952 109.836L285.958 109.373L293.231 80.78L293.248 80.7525C293.292 80.681 297.772 73.6084 306.051 73.6084C312.092 73.6084 335.225 78.5704 348.477 81.5283C350.639 82.0154 352.645 82.9565 354.334 84.276C356.022 85.5954 357.346 87.2563 358.197 89.1247C364.625 103.281 380.388 140.195 387.908 177.125C392.15 197.955 393.122 215.674 390.796 229.792C387.979 246.882 380.284 258.87 367.922 265.421C366.985 265.951 365.901 266.226 364.797 266.215Z" fill="#E6E6E6"/>
<path d="M169.961 183.265C180.392 183.265 188.849 175.59 188.849 166.124C188.849 156.658 180.392 148.983 169.961 148.983C159.529 148.983 151.073 156.658 151.073 166.124C151.073 175.59 159.529 183.265 169.961 183.265Z" fill="#3F3D56"/>
<path d="M169.961 177.55C176.915 177.55 182.553 172.434 182.553 166.123C182.553 159.812 176.915 154.696 169.961 154.696C163.007 154.696 157.369 159.812 157.369 166.123C157.369 172.434 163.007 177.55 169.961 177.55Z" fill="#2F2E41"/>
<path d="M275.54 183.265C285.971 183.265 294.428 175.59 294.428 166.124C294.428 156.658 285.971 148.983 275.54 148.983C265.108 148.983 256.652 156.658 256.652 166.124C256.652 175.59 265.108 183.265 275.54 183.265Z" fill="#3F3D56"/>
<path d="M275.54 177.55C282.494 177.55 288.132 172.434 288.132 166.123C288.132 159.812 282.494 154.696 275.54 154.696C268.585 154.696 262.948 159.812 262.948 166.123C262.948 172.434 268.585 177.55 275.54 177.55Z" fill="#2F2E41"/>
<path d="M211.127 145.467C211.929 145.467 212.58 144.877 212.58 144.149C212.58 143.42 211.929 142.83 211.127 142.83C210.324 142.83 209.674 143.42 209.674 144.149C209.674 144.877 210.324 145.467 211.127 145.467Z" fill="#2F2E41"/>
<path d="M217.423 145.467C218.226 145.467 218.876 144.877 218.876 144.149C218.876 143.42 218.226 142.83 217.423 142.83C216.621 142.83 215.97 143.42 215.97 144.149C215.97 144.877 216.621 145.467 217.423 145.467Z" fill="#2F2E41"/>
<path d="M214.517 150.302C215.319 150.302 215.97 149.712 215.97 148.984C215.97 148.255 215.319 147.665 214.517 147.665C213.714 147.665 213.064 148.255 213.064 148.984C213.064 149.712 213.714 150.302 214.517 150.302Z" fill="#2F2E41"/>
<path d="M220.329 150.302C221.131 150.302 221.782 149.712 221.782 148.984C221.782 148.255 221.131 147.665 220.329 147.665C219.526 147.665 218.876 148.255 218.876 148.984C218.876 149.712 219.526 150.302 220.329 150.302Z" fill="#2F2E41"/>
<path d="M226.14 150.302C226.943 150.302 227.593 149.712 227.593 148.984C227.593 148.255 226.943 147.665 226.14 147.665C225.338 147.665 224.688 148.255 224.688 148.984C224.688 149.712 225.338 150.302 226.14 150.302Z" fill="#2F2E41"/>
<path d="M231.952 150.302C232.754 150.302 233.405 149.712 233.405 148.984C233.405 148.255 232.754 147.665 231.952 147.665C231.15 147.665 230.499 148.255 230.499 148.984C230.499 149.712 231.15 150.302 231.952 150.302Z" fill="#2F2E41"/>
<path d="M223.719 145.467C224.521 145.467 225.172 144.877 225.172 144.149C225.172 143.42 224.521 142.83 223.719 142.83C222.917 142.83 222.266 143.42 222.266 144.149C222.266 144.877 222.917 145.467 223.719 145.467Z" fill="#2F2E41"/>
<path d="M230.015 145.467C230.817 145.467 231.468 144.877 231.468 144.149C231.468 143.42 230.817 142.83 230.015 142.83C229.213 142.83 228.562 143.42 228.562 144.149C228.562 144.877 229.213 145.467 230.015 145.467Z" fill="#2F2E41"/>
<path d="M236.311 145.467C237.113 145.467 237.764 144.877 237.764 144.149C237.764 143.42 237.113 142.83 236.311 142.83C235.508 142.83 234.858 143.42 234.858 144.149C234.858 144.877 235.508 145.467 236.311 145.467Z" fill="#2F2E41"/>
<path d="M229.531 184.803H216.939C216.361 184.803 215.806 184.595 215.398 184.224C214.989 183.853 214.759 183.35 214.759 182.825C214.759 182.301 214.989 181.798 215.398 181.427C215.806 181.056 216.361 180.848 216.939 180.848H229.531C230.109 180.848 230.663 181.056 231.072 181.427C231.48 181.798 231.71 182.301 231.71 182.825C231.71 183.35 231.48 183.853 231.072 184.224C230.663 184.595 230.109 184.803 229.531 184.803Z" fill="#2F2E41"/>
<path d="M146.154 98.8303C145.342 98.8283 144.554 98.5778 143.917 98.1194C143.281 97.6609 142.833 97.0212 142.646 96.3034L140.715 88.8634C140.496 88.0177 140.657 87.1279 141.161 86.3895C141.665 85.651 142.471 85.1244 143.403 84.9252C144.335 84.726 145.315 84.8707 146.13 85.3273C146.944 85.784 147.525 86.5153 147.745 87.3606L149.677 94.8005C149.801 95.2822 149.803 95.783 149.684 96.2657C149.565 96.7484 149.327 97.2004 148.989 97.5879C148.65 97.9755 148.219 98.2885 147.728 98.5036C147.238 98.7188 146.7 98.8305 146.154 98.8303Z" fill="#3F3D56"/>
<path d="M300.799 98.3899C300.254 98.39 299.716 98.2783 299.226 98.0632C298.735 97.8481 298.304 97.535 297.965 97.1475C297.626 96.76 297.389 96.3079 297.27 95.8253C297.15 95.3426 297.153 94.8417 297.277 94.3601L299.208 86.9201C299.429 86.0748 300.01 85.3435 300.824 84.8869C301.638 84.4303 302.619 84.2856 303.551 84.4848C304.482 84.6839 305.289 85.2106 305.793 85.949C306.297 86.6875 306.457 87.5773 306.239 88.423L304.308 95.863C304.121 96.5807 303.673 97.2205 303.037 97.6789C302.4 98.1374 301.612 98.3879 300.799 98.3899Z" fill="#3F3D56"/>
<path d="M119.51 120.791C118.321 120.791 117.162 120.459 116.189 119.84L112.135 117.265C111.372 116.78 110.75 116.135 110.32 115.386C109.89 114.636 109.665 113.804 109.665 112.959V105.073C109.667 103.489 110.361 101.971 111.595 100.851C112.828 99.7313 114.501 99.1014 116.246 99.0996H122.455C124.2 99.1014 125.873 99.7313 127.107 100.851C128.341 101.971 129.035 103.489 129.037 105.073V113.036C129.035 113.859 128.821 114.671 128.412 115.406C128.003 116.14 127.41 116.778 126.681 117.267L122.945 119.765C121.95 120.431 120.746 120.791 119.51 120.791Z" fill="#3F3D56"/>
<path d="M122.455 149.642H116.246C114.501 149.64 112.828 149.01 111.595 147.891C110.361 146.771 109.667 145.253 109.665 143.669V135.783C109.665 134.938 109.89 134.105 110.32 133.356C110.75 132.606 111.372 131.962 112.135 131.477L116.189 128.902C117.181 128.271 118.368 127.938 119.58 127.952C120.793 127.965 121.97 128.324 122.945 128.977L126.681 131.474C127.41 131.964 128.003 132.602 128.412 133.336C128.821 134.071 129.035 134.882 129.037 135.706V143.669C129.035 145.253 128.341 146.771 127.107 147.891C125.873 149.01 124.2 149.64 122.455 149.642Z" fill="#3F3D56"/>
<path d="M141.827 133.161H133.137C132.206 133.161 131.289 132.957 130.463 132.567C129.637 132.176 128.927 131.611 128.392 130.919L125.555 127.241C124.859 126.34 124.492 125.263 124.507 124.163C124.522 123.063 124.917 121.994 125.637 121.109L128.389 117.719C128.929 117.058 129.631 116.519 130.441 116.148C131.251 115.777 132.145 115.583 133.052 115.581H141.827C143.572 115.583 145.245 116.213 146.479 117.332C147.713 118.452 148.407 119.97 148.409 121.554V127.188C148.407 128.772 147.713 130.29 146.479 131.41C145.245 132.53 143.572 133.159 141.827 133.161Z" fill="#3F3D56"/>
<path d="M105.08 133.161H96.39C94.645 133.159 92.972 132.53 91.7381 131.41C90.5042 130.29 89.8101 128.772 89.8081 127.188V121.554C89.8101 119.97 90.5042 118.452 91.7381 117.332C92.972 116.213 94.645 115.583 96.39 115.581H105.165C106.073 115.583 106.967 115.777 107.776 116.148C108.586 116.519 109.288 117.057 109.828 117.719L112.58 121.109C113.3 121.994 113.695 123.063 113.71 124.163C113.725 125.263 113.358 126.34 112.663 127.241L109.825 130.919C109.291 131.611 108.581 132.176 107.755 132.567C106.929 132.957 106.011 133.161 105.08 133.161Z" fill="#3F3D56"/>
<path d="M327.361 112.065C333.513 112.065 338.5 107.539 338.5 101.956C338.5 96.3734 333.513 91.8477 327.361 91.8477C321.209 91.8477 316.222 96.3734 316.222 101.956C316.222 107.539 321.209 112.065 327.361 112.065Z" fill="#3F3D56"/>
<path d="M352.06 135.359C358.212 135.359 363.199 130.833 363.199 125.25C363.199 119.667 358.212 115.142 352.06 115.142C345.908 115.142 340.921 119.667 340.921 125.25C340.921 130.833 345.908 135.359 352.06 135.359Z" fill="#3F3D56"/>
<path d="M327.361 157.333C333.513 157.333 338.5 152.808 338.5 147.225C338.5 141.642 333.513 137.116 327.361 137.116C321.209 137.116 316.222 141.642 316.222 147.225C316.222 152.808 321.209 157.333 327.361 157.333Z" fill="#3F3D56"/>
<path d="M302.661 134.919C308.813 134.919 313.8 130.394 313.8 124.811C313.8 119.228 308.813 114.702 302.661 114.702C296.509 114.702 291.522 119.228 291.522 124.811C291.522 130.394 296.509 134.919 302.661 134.919Z" fill="#3F3D56"/>
<path d="M352.06 131.842C350.623 131.842 349.219 131.456 348.024 130.731C346.829 130.007 345.898 128.977 345.348 127.773C344.799 126.568 344.655 125.242 344.935 123.964C345.215 122.685 345.907 121.51 346.923 120.588C347.939 119.666 349.234 119.038 350.643 118.784C352.052 118.53 353.513 118.66 354.84 119.159C356.167 119.658 357.302 120.503 358.1 121.587C358.899 122.671 359.325 123.946 359.325 125.25C359.322 126.998 358.556 128.673 357.194 129.909C355.833 131.145 353.986 131.84 352.06 131.842ZM352.06 119.536C350.815 119.536 349.598 119.871 348.562 120.499C347.527 121.127 346.72 122.019 346.243 123.063C345.767 124.107 345.642 125.256 345.885 126.364C346.128 127.473 346.728 128.491 347.608 129.29C348.489 130.089 349.61 130.633 350.832 130.854C352.053 131.074 353.319 130.961 354.469 130.528C355.62 130.096 356.603 129.364 357.295 128.424C357.987 127.484 358.356 126.38 358.356 125.25C358.354 123.735 357.69 122.283 356.51 121.212C355.33 120.14 353.729 119.538 352.06 119.536Z" fill="#E6E6E6"/>
<path d="M335.145 106.861L320.545 106.674L328.024 95.2939L335.145 106.861ZM322.237 105.816L333.481 105.961L327.997 97.052L322.237 105.816Z" fill="#E6E6E6"/>
<path d="M308.472 130.084H296.849V119.536H308.472V130.084ZM297.818 129.205H307.504V120.415H297.818V129.205Z" fill="#E6E6E6"/>
<path d="M333.372 151.763L328.047 146.94L332.742 142.687L332.058 142.064L327.361 146.319L322.664 142.064L321.979 142.687L326.675 146.94L321.35 151.763L322.034 152.386L327.361 147.561L332.687 152.386L333.372 151.763Z" fill="#E6E6E6"/>
<path d="M119.494 32.4527C118.057 32.4527 116.653 32.066 115.458 31.3416C114.263 30.6172 113.332 29.5876 112.782 28.383C112.233 27.1783 112.089 25.8528 112.369 24.574C112.649 23.2952 113.341 22.1205 114.357 21.1985C115.373 20.2765 116.668 19.6486 118.077 19.3943C119.486 19.1399 120.947 19.2704 122.274 19.7694C123.602 20.2684 124.736 21.1134 125.534 22.1975C126.333 23.2816 126.759 24.5562 126.759 25.8601C126.757 27.608 125.99 29.2837 124.629 30.5196C123.267 31.7555 121.42 32.4507 119.494 32.4527ZM119.494 20.1466C118.249 20.1466 117.032 20.4817 115.996 21.1095C114.961 21.7373 114.154 22.6296 113.677 23.6736C113.201 24.7177 113.076 25.8665 113.319 26.9748C113.562 28.0831 114.162 29.1011 115.042 29.9002C115.923 30.6993 117.045 31.2434 118.266 31.4639C119.487 31.6843 120.753 31.5712 121.903 31.1387C123.054 30.7063 124.037 29.974 124.729 29.0344C125.421 28.0948 125.79 26.9902 125.79 25.8601C125.788 24.3453 125.124 22.893 123.944 21.8219C122.764 20.7508 121.163 20.1483 119.494 20.1466Z" fill="white"/>
<path d="M103.063 21.5352L88.4634 21.3478L95.942 9.96777L103.063 21.5352ZM90.1547 20.4903L101.399 20.6347L95.9146 11.7258L90.1547 20.4903Z" fill="white"/>
<path d="M81.575 37.5696H69.9517V27.0215H81.575V37.5696ZM70.9203 36.6905H80.6064V27.9005H70.9203V36.6905Z" fill="white"/>
<path d="M92.0874 57.2083L86.7624 52.3852L91.4583 48.1321L90.7739 47.5098L86.0766 51.7642L81.3794 47.5098L80.695 48.1321L85.3909 52.3852L80.0659 57.2083L80.7502 57.8306L86.0766 53.0062L91.403 57.8306L92.0874 57.2083Z" fill="white"/>
<path opacity="0.2" d="M420.105 151.4L401.307 164.24L422.527 155.795L420.105 151.4Z" fill="black"/>
<path d="M72.3732 167.223L48.6422 168.102L45.7363 153.598L66.0772 147.885L72.3732 167.223Z" fill="#A0616A"/>
<path d="M63.6485 131.678L58.3555 126.787L64.8455 117.781L75.9535 101.002C75.5905 100.279 75.478 99.4729 75.6307 98.6907C75.7834 97.9085 76.1942 97.1868 76.8087 96.6211C77.4232 96.0554 78.2125 95.6723 79.0721 95.5225C79.9317 95.3727 80.8212 95.4633 81.6229 95.7823C82.4246 96.1012 83.1007 96.6335 83.5618 97.3088C84.0228 97.984 84.2471 98.7704 84.205 99.5638C84.1629 100.357 83.8563 101.12 83.3259 101.752C82.7954 102.384 82.0661 102.855 81.2343 103.103L72.0656 121.016L63.6485 131.678Z" fill="#A0616A"/>
<path d="M57.7851 142.843C57.1636 143.716 56.2781 144.409 55.2344 144.838C54.1908 145.267 53.0331 145.414 51.8998 145.261C50.8211 145.146 49.8031 144.747 48.9707 144.114C48.1383 143.48 47.5277 142.64 47.2141 141.697C46.983 141.027 46.9157 140.32 47.0169 139.624C47.1181 138.928 47.3853 138.261 47.7999 137.668C51.3408 132.251 57.8714 125.097 57.9369 125.026L58.0409 124.912L69.0556 127.078L57.7851 142.843Z" fill="#232F58"/>
<path d="M66.7173 262.722L73.2985 262.722L76.4291 239.686L66.7158 239.686L66.7173 262.722Z" fill="#A0616A"/>
<path d="M65.0381 260.773L77.999 260.772H77.9996C80.1901 260.773 82.2909 261.562 83.8399 262.968C85.3889 264.374 86.2591 266.28 86.2593 268.268V268.512L65.0385 268.512L65.0381 260.773Z" fill="#2F2E41"/>
<path d="M15.4727 260.137L21.9798 261.03L28.8705 238.677L20.3399 237.359L15.4727 260.137Z" fill="#A0616A"/>
<path d="M14.1339 257.981L26.9493 259.739L26.9498 259.739C29.1157 260.037 31.0628 261.102 32.3628 262.702C33.6629 264.302 34.2093 266.306 33.882 268.271L33.8419 268.512L12.8594 265.634L14.1339 257.981Z" fill="#2F2E41"/>
<path d="M47.6734 163.706L70.4358 160.19L77.4788 173.365L77.7473 259.348L65.2545 259.277L60.0322 189.685L26.7495 253.989L13.3291 252.528L42.5857 183.595C42.5857 183.595 40.9752 171.416 46.075 165.327L47.6734 163.706Z" fill="#2F2E41"/>
<path d="M39.2233 137.75C38.8754 136.802 38.8384 135.782 39.1169 134.815C39.3954 133.848 39.9773 132.975 40.7919 132.302L44.0269 129.634L53.1468 128.239L58.8492 127.299L68.0145 151.4L45.7543 160.681C43.8007 160.299 43.0204 159.329 44.1571 157.401L39.2233 137.75Z" fill="#232F58"/>
<path d="M59.6523 145.882L66.0202 142.194L74.3865 149.819L90.1791 163.153C91.0335 162.98 91.9256 163.047 92.7373 163.344C93.549 163.641 94.242 164.155 94.7248 164.818C95.2076 165.481 95.4574 166.261 95.441 167.055C95.4247 167.849 95.1431 168.62 94.6334 169.266C94.1237 169.912 93.4099 170.402 92.5866 170.672C91.7632 170.941 90.869 170.978 90.0223 170.776C89.1756 170.575 88.4163 170.145 87.8447 169.543C87.2732 168.941 86.9164 168.196 86.8216 167.407L69.4052 155.561L59.6523 145.882Z" fill="#A0616A"/>
<path d="M48.8279 138.366C48.0149 137.634 47.4515 136.704 47.205 135.689C46.9586 134.674 47.0396 133.616 47.4383 132.641C47.7863 131.707 48.427 130.886 49.2818 130.278C50.1366 129.67 51.1683 129.302 52.2505 129.218C53.0204 129.151 53.797 129.238 54.5262 129.472C55.2554 129.706 55.9197 130.081 56.4726 130.572C61.5801 134.836 67.9419 142.114 68.0055 142.187L68.1065 142.303L63.4933 151.634L48.8279 138.366Z" fill="#232F58"/>
<path d="M49.1444 125.308C54.6733 125.308 59.1554 121.24 59.1554 116.223C59.1554 111.205 54.6733 107.138 49.1444 107.138C43.6154 107.138 39.1333 111.205 39.1333 116.223C39.1333 121.24 43.6154 125.308 49.1444 125.308Z" fill="#A0616A"/>
<path d="M41.0391 129.165C39.4866 129.165 37.9356 129.079 36.3946 128.908L36.1833 128.885L34.5708 120.94C33.8869 117.573 34.6494 114.095 36.7019 111.221C38.7543 108.348 41.941 106.296 45.6079 105.487C45.8526 105.431 46.1096 105.437 46.3508 105.505C46.5919 105.572 46.8077 105.699 46.9746 105.871L47.3592 105.749C48.8316 105.283 50.3908 105.085 51.9476 105.166C53.5045 105.247 55.0285 105.605 56.4328 106.221C57.837 106.836 59.0939 107.696 60.1317 108.753C61.1696 109.809 61.968 111.04 62.4814 112.376L62.5767 112.625L60.0102 113.437C59.2106 113.69 58.4831 114.101 57.8808 114.642C57.2785 115.182 56.8164 115.837 56.5282 116.56C56.2401 117.283 56.1331 118.055 56.215 118.82C56.2969 119.585 56.5656 120.323 57.0017 120.982L59.6258 124.946L59.3464 125.074C53.6828 127.724 47.411 129.125 41.0391 129.165Z" fill="#2F2E41"/>
<path d="M384.974 167.182C385.089 166.675 385.327 166.196 385.668 165.78C386.01 165.364 386.448 165.022 386.952 164.776C387.455 164.531 388.012 164.389 388.582 164.359C389.153 164.33 389.724 164.415 390.254 164.608L399.36 155.085L401.307 161.394L392.362 169.47C391.946 170.257 391.227 170.879 390.339 171.217C389.452 171.555 388.459 171.586 387.548 171.304C386.638 171.022 385.873 170.447 385.398 169.687C384.923 168.928 384.772 168.036 384.974 167.182H384.974Z" fill="#FFB6B6"/>
<path d="M425.603 125.316L429.333 125.133L429.895 127.284C429.895 127.284 429.839 130.04 426.438 135.766C423.037 141.493 396.685 166.991 396.685 166.991L390.979 161.113L405.084 147.928L413.627 134.109L425.603 125.316Z" fill="#232F58"/>
<path d="M0.603935 269H443.396C443.556 269 443.71 268.943 443.823 268.84C443.936 268.737 444 268.598 444 268.452C444 268.307 443.936 268.168 443.823 268.065C443.71 267.962 443.556 267.904 443.396 267.904H0.603935C0.443762 267.904 0.290152 267.962 0.176893 268.065C0.0636339 268.168 0 268.307 0 268.452C0 268.598 0.0636339 268.737 0.176893 268.84C0.290152 268.943 0.443762 269 0.603935 269Z" fill="#CCCCCC"/>
</g>
<defs>
<clipPath id="clip0_1695_983">
<rect width="444" height="269" fill="white"/>
</clipPath>
</defs>
</svg>
